<svg xmlns="http://www.w3.org/2000/svg" xmlns:xlink="http://www.w3.org/1999/xlink" width="500" zoomAndPan="magnify" viewBox="0 0 375 374.999991" height="500" preserveAspectRatio="xMidYMid meet" version="1.0"><defs><g/><clipPath id="1d8afec5dc"><path d="M 98 165 L 119 165 L 119 177 L 98 177 Z M 98 165 " clip-rule="nonzero"/></clipPath><clipPath id="54e8fa1d69"><path d="M 100.007812 165.378906 L 118.789062 168.425781 L 117.515625 176.257812 L 98.734375 173.207031 Z M 100.007812 165.378906 " clip-rule="nonzero"/></clipPath><clipPath id="a0e7b84d20"><path d="M 101.488281 165.617188 L 117.277344 168.179688 C 117.667969 168.246094 118.019531 168.460938 118.253906 168.785156 C 118.484375 169.109375 118.582031 169.507812 118.515625 169.902344 L 117.726562 174.769531 C 117.664062 175.164062 117.445312 175.515625 117.125 175.746094 C 116.800781 175.980469 116.398438 176.074219 116.003906 176.011719 L 100.214844 173.449219 C 99.824219 173.382812 99.472656 173.167969 99.238281 172.84375 C 99.007812 172.523438 98.910156 172.121094 98.976562 171.726562 L 99.765625 166.859375 C 99.828125 166.464844 100.046875 166.113281 100.371094 165.882812 C 100.691406 165.648438 101.09375 165.554688 101.488281 165.617188 Z M 101.488281 165.617188 " clip-rule="nonzero"/></clipPath><clipPath id="5a0f215e2f"><path d="M 88.359375 176.117188 L 107.246094 176.117188 L 107.246094 183.757812 L 88.359375 183.757812 Z M 88.359375 176.117188 " clip-rule="nonzero"/></clipPath><clipPath id="3f738347f7"><path d="M 89.859375 176.117188 L 105.742188 176.117188 C 106.136719 176.117188 106.519531 176.277344 106.800781 176.558594 C 107.082031 176.839844 107.242188 177.21875 107.242188 177.617188 L 107.242188 182.257812 C 107.242188 182.652344 107.082031 183.035156 106.800781 183.316406 C 106.519531 183.597656 106.136719 183.757812 105.742188 183.757812 L 89.859375 183.757812 C 89.460938 183.757812 89.078125 183.597656 88.796875 183.316406 C 88.515625 183.035156 88.359375 182.652344 88.359375 182.257812 L 88.359375 177.617188 C 88.359375 177.21875 88.515625 176.839844 88.796875 176.558594 C 89.078125 176.277344 89.460938 176.117188 89.859375 176.117188 Z M 89.859375 176.117188 " clip-rule="nonzero"/></clipPath><clipPath id="e9a923ab2d"><path d="M 98.824219 185.082031 L 117.710938 185.082031 L 117.710938 192.71875 L 98.824219 192.71875 Z M 98.824219 185.082031 " clip-rule="nonzero"/></clipPath><clipPath id="782198f097"><path d="M 100.324219 185.082031 L 116.207031 185.082031 C 116.605469 185.082031 116.984375 185.238281 117.265625 185.519531 C 117.546875 185.800781 117.707031 186.183594 117.707031 186.582031 L 117.707031 191.21875 C 117.707031 191.617188 117.546875 192 117.265625 192.28125 C 116.984375 192.5625 116.605469 192.71875 116.207031 192.71875 L 100.324219 192.71875 C 99.925781 192.71875 99.542969 192.5625 99.261719 192.28125 C 98.980469 192 98.824219 191.617188 98.824219 191.21875 L 98.824219 186.582031 C 98.824219 186.183594 98.980469 185.800781 99.261719 185.519531 C 99.542969 185.238281 99.925781 185.082031 100.324219 185.082031 Z M 100.324219 185.082031 " clip-rule="nonzero"/></clipPath><clipPath id="4563236d4c"><path d="M 88.359375 194.046875 L 107.246094 194.046875 L 107.246094 201.683594 L 88.359375 201.683594 Z M 88.359375 194.046875 " clip-rule="nonzero"/></clipPath><clipPath id="47880252e3"><path d="M 89.859375 194.046875 L 105.742188 194.046875 C 106.136719 194.046875 106.519531 194.203125 106.800781 194.484375 C 107.082031 194.765625 107.242188 195.148438 107.242188 195.546875 L 107.242188 200.183594 C 107.242188 200.582031 107.082031 200.964844 106.800781 201.246094 C 106.519531 201.527344 106.136719 201.683594 105.742188 201.683594 L 89.859375 201.683594 C 89.460938 201.683594 89.078125 201.527344 88.796875 201.246094 C 88.515625 200.964844 88.359375 200.582031 88.359375 200.183594 L 88.359375 195.546875 C 88.359375 195.148438 88.515625 194.765625 88.796875 194.484375 C 89.078125 194.203125 89.460938 194.046875 89.859375 194.046875 Z M 89.859375 194.046875 " clip-rule="nonzero"/></clipPath><clipPath id="e4236fe687"><path d="M 78.917969 184.90625 L 97.804688 184.90625 L 97.804688 192.546875 L 78.917969 192.546875 Z M 78.917969 184.90625 " clip-rule="nonzero"/></clipPath><clipPath id="e880c86a09"><path d="M 80.417969 184.90625 L 96.300781 184.90625 C 96.695312 184.90625 97.078125 185.066406 97.359375 185.347656 C 97.640625 185.628906 97.800781 186.007812 97.800781 186.40625 L 97.800781 191.046875 C 97.800781 191.441406 97.640625 191.824219 97.359375 192.105469 C 97.078125 192.386719 96.695312 192.546875 96.300781 192.546875 L 80.417969 192.546875 C 80.019531 192.546875 79.636719 192.386719 79.355469 192.105469 C 79.074219 191.824219 78.917969 191.441406 78.917969 191.046875 L 78.917969 186.40625 C 78.917969 186.007812 79.074219 185.628906 79.355469 185.347656 C 79.636719 185.066406 80.019531 184.90625 80.417969 184.90625 Z M 80.417969 184.90625 " clip-rule="nonzero"/></clipPath><clipPath id="aa6282ecad"><path d="M 98.824219 203.007812 L 117.710938 203.007812 L 117.710938 210.648438 L 98.824219 210.648438 Z M 98.824219 203.007812 " clip-rule="nonzero"/></clipPath><clipPath id="acbd12ab7e"><path d="M 100.324219 203.007812 L 116.207031 203.007812 C 116.605469 203.007812 116.984375 203.167969 117.265625 203.449219 C 117.546875 203.730469 117.707031 204.113281 117.707031 204.507812 L 117.707031 209.148438 C 117.707031 209.546875 117.546875 209.925781 117.265625 210.207031 C 116.984375 210.488281 116.605469 210.648438 116.207031 210.648438 L 100.324219 210.648438 C 99.925781 210.648438 99.542969 210.488281 99.261719 210.207031 C 98.980469 209.925781 98.824219 209.546875 98.824219 209.148438 L 98.824219 204.507812 C 98.824219 204.113281 98.980469 203.730469 99.261719 203.449219 C 99.542969 203.167969 99.925781 203.007812 100.324219 203.007812 Z M 100.324219 203.007812 " clip-rule="nonzero"/></clipPath><clipPath id="7e64b0c195"><path d="M 78.917969 203.007812 L 97.804688 203.007812 L 97.804688 210.648438 L 78.917969 210.648438 Z M 78.917969 203.007812 " clip-rule="nonzero"/></clipPath><clipPath id="b870010e24"><path d="M 80.417969 203.007812 L 96.300781 203.007812 C 96.695312 203.007812 97.078125 203.167969 97.359375 203.449219 C 97.640625 203.730469 97.800781 204.113281 97.800781 204.507812 L 97.800781 209.148438 C 97.800781 209.546875 97.640625 209.925781 97.359375 210.207031 C 97.078125 210.488281 96.695312 210.648438 96.300781 210.648438 L 80.417969 210.648438 C 80.019531 210.648438 79.636719 210.488281 79.355469 210.207031 C 79.074219 209.925781 78.917969 209.546875 78.917969 209.148438 L 78.917969 204.507812 C 78.917969 204.113281 79.074219 203.730469 79.355469 203.449219 C 79.636719 203.167969 80.019531 203.007812 80.417969 203.007812 Z M 80.417969 203.007812 " clip-rule="nonzero"/></clipPath><clipPath id="159ca4e316"><path d="M 59.285156 203.007812 L 78.171875 203.007812 L 78.171875 210.648438 L 59.285156 210.648438 Z M 59.285156 203.007812 " clip-rule="nonzero"/></clipPath><clipPath id="36285b78f9"><path d="M 60.785156 203.007812 L 76.667969 203.007812 C 77.0625 203.007812 77.445312 203.167969 77.726562 203.449219 C 78.007812 203.730469 78.167969 204.113281 78.167969 204.507812 L 78.167969 209.148438 C 78.167969 209.546875 78.007812 209.925781 77.726562 210.207031 C 77.445312 210.488281 77.0625 210.648438 76.667969 210.648438 L 60.785156 210.648438 C 60.386719 210.648438 60.003906 210.488281 59.722656 210.207031 C 59.441406 209.925781 59.285156 209.546875 59.285156 209.148438 L 59.285156 204.507812 C 59.285156 204.113281 59.441406 203.730469 59.722656 203.449219 C 60.003906 203.167969 60.386719 203.007812 60.785156 203.007812 Z M 60.785156 203.007812 " clip-rule="nonzero"/></clipPath><clipPath id="fea002e27e"><path d="M 68.726562 193.957031 L 87.613281 193.957031 L 87.613281 201.597656 L 68.726562 201.597656 Z M 68.726562 193.957031 " clip-rule="nonzero"/></clipPath><clipPath id="d9dd211a39"><path d="M 70.226562 193.957031 L 86.109375 193.957031 C 86.503906 193.957031 86.886719 194.117188 87.167969 194.398438 C 87.449219 194.679688 87.609375 195.058594 87.609375 195.457031 L 87.609375 200.097656 C 87.609375 200.496094 87.449219 200.875 87.167969 201.15625 C 86.886719 201.4375 86.503906 201.597656 86.109375 201.597656 L 70.226562 201.597656 C 69.828125 201.597656 69.445312 201.4375 69.164062 201.15625 C 68.882812 200.875 68.726562 200.496094 68.726562 200.097656 L 68.726562 195.457031 C 68.726562 195.058594 68.882812 194.679688 69.164062 194.398438 C 69.445312 194.117188 69.828125 193.957031 70.226562 193.957031 Z M 70.226562 193.957031 " clip-rule="nonzero"/></clipPath><clipPath id="2911e9233d"><path d="M 59.285156 185.121094 L 78.171875 185.121094 L 78.171875 192.757812 L 59.285156 192.757812 Z M 59.285156 185.121094 " clip-rule="nonzero"/></clipPath><clipPath id="f37886482b"><path d="M 60.785156 185.121094 L 76.667969 185.121094 C 77.0625 185.121094 77.445312 185.277344 77.726562 185.558594 C 78.007812 185.839844 78.167969 186.222656 78.167969 186.621094 L 78.167969 191.257812 C 78.167969 191.65625 78.007812 192.039062 77.726562 192.320312 C 77.445312 192.601562 77.0625 192.757812 76.667969 192.757812 L 60.785156 192.757812 C 60.386719 192.757812 60.003906 192.601562 59.722656 192.320312 C 59.441406 192.039062 59.285156 191.65625 59.285156 191.257812 L 59.285156 186.621094 C 59.285156 186.222656 59.441406 185.839844 59.722656 185.558594 C 60.003906 185.277344 60.386719 185.121094 60.785156 185.121094 Z M 60.785156 185.121094 " clip-rule="nonzero"/></clipPath><clipPath id="87977f6967"><path d="M 68.726562 176.253906 L 87.613281 176.253906 L 87.613281 183.890625 L 68.726562 183.890625 Z M 68.726562 176.253906 " clip-rule="nonzero"/></clipPath><clipPath id="e8e748d39b"><path d="M 70.226562 176.253906 L 86.109375 176.253906 C 86.503906 176.253906 86.886719 176.410156 87.167969 176.691406 C 87.449219 176.972656 87.609375 177.355469 87.609375 177.753906 L 87.609375 182.390625 C 87.609375 182.789062 87.449219 183.171875 87.167969 183.453125 C 86.886719 183.734375 86.503906 183.890625 86.109375 183.890625 L 70.226562 183.890625 C 69.828125 183.890625 69.445312 183.734375 69.164062 183.453125 C 68.882812 183.171875 68.726562 182.789062 68.726562 182.390625 L 68.726562 177.753906 C 68.726562 177.355469 68.882812 176.972656 69.164062 176.691406 C 69.445312 176.410156 69.828125 176.253906 70.226562 176.253906 Z M 70.226562 176.253906 " clip-rule="nonzero"/></clipPath></defs><rect x="-37.5" width="450" fill="#ffffff" y="-37.499999" height="449.999989" fill-opacity="1"/><rect x="-37.5" width="450" fill="#000000" y="-37.499999" height="449.999989" fill-opacity="1"/><g clip-path="url(#1d8afec5dc)"><g clip-path="url(#54e8fa1d69)"><g clip-path="url(#a0e7b84d20)"><path fill="#ffffff" d="M 100.007812 165.378906 L 118.757812 168.421875 L 117.484375 176.25 L 98.734375 173.207031 Z M 100.007812 165.378906 " fill-opacity="1" fill-rule="nonzero"/></g></g></g><g fill="#ffffff" fill-opacity="1"><g transform="translate(128.734318, 201.245524)"><g><path d="M -0.875 9.40625 L 4.875 -25.09375 L 11.734375 -25.09375 L 11.046875 -20.875 L 11.34375 -20.875 C 11.75 -21.5625 12.300781 -22.253906 13 -22.953125 C 13.707031 -23.648438 14.578125 -24.234375 15.609375 -24.703125 C 16.640625 -25.179688 17.851562 -25.421875 19.25 -25.421875 C 21.082031 -25.421875 22.6875 -24.941406 24.0625 -23.984375 C 25.445312 -23.035156 26.441406 -21.601562 27.046875 -19.6875 C 27.660156 -17.78125 27.726562 -15.390625 27.25 -12.515625 C 26.789062 -9.710938 25.945312 -7.347656 24.71875 -5.421875 C 23.5 -3.503906 22.035156 -2.050781 20.328125 -1.0625 C 18.617188 -0.0820312 16.816406 0.40625 14.921875 0.40625 C 13.566406 0.40625 12.457031 0.179688 11.59375 -0.265625 C 10.738281 -0.710938 10.066406 -1.273438 9.578125 -1.953125 C 9.097656 -2.628906 8.753906 -3.316406 8.546875 -4.015625 L 8.296875 -4.015625 L 6.078125 9.40625 Z M 9.59375 -12.546875 C 9.226562 -10.316406 9.390625 -8.519531 10.078125 -7.15625 C 10.773438 -5.800781 11.960938 -5.125 13.640625 -5.125 C 15.359375 -5.125 16.773438 -5.8125 17.890625 -7.1875 C 19.003906 -8.570312 19.753906 -10.359375 20.140625 -12.546875 C 20.492188 -14.722656 20.332031 -16.488281 19.65625 -17.84375 C 18.988281 -19.195312 17.796875 -19.875 16.078125 -19.875 C 14.398438 -19.875 12.988281 -19.210938 11.84375 -17.890625 C 10.695312 -16.566406 9.945312 -14.785156 9.59375 -12.546875 Z M 9.59375 -12.546875 "/></g></g></g><g fill="#ffffff" fill-opacity="1"><g transform="translate(155.156736, 201.245524)"><g><path d="M 0.6875 0 L 4.875 -25.09375 L 11.609375 -25.09375 L 10.875 -20.71875 L 11.140625 -20.71875 C 11.859375 -22.269531 12.816406 -23.445312 14.015625 -24.25 C 15.222656 -25.050781 16.539062 -25.453125 17.96875 -25.453125 C 19.300781 -25.453125 20.378906 -25.144531 21.203125 -24.53125 L 18.203125 -18.8125 C 17.890625 -18.96875 17.546875 -19.097656 17.171875 -19.203125 C 16.796875 -19.316406 16.367188 -19.375 15.890625 -19.375 C 14.492188 -19.375 13.226562 -18.894531 12.09375 -17.9375 C 10.96875 -16.976562 10.265625 -15.734375 9.984375 -14.203125 L 7.640625 0 Z M 0.6875 0 "/></g></g></g><g fill="#ffffff" fill-opacity="1"><g transform="translate(172.203583, 201.245524)"><g><path d="M 12.0625 0.484375 C 9.5 0.484375 7.378906 -0.0625 5.703125 -1.15625 C 4.035156 -2.25 2.859375 -3.773438 2.171875 -5.734375 C 1.492188 -7.691406 1.367188 -9.96875 1.796875 -12.5625 C 2.210938 -15.132812 3.070312 -17.382812 4.375 -19.3125 C 5.6875 -21.238281 7.347656 -22.738281 9.359375 -23.8125 C 11.367188 -24.882812 13.640625 -25.421875 16.171875 -25.421875 C 18.722656 -25.421875 20.835938 -24.875 22.515625 -23.78125 C 24.191406 -22.6875 25.367188 -21.15625 26.046875 -19.1875 C 26.722656 -17.226562 26.851562 -14.945312 26.4375 -12.34375 C 26.019531 -9.789062 25.15625 -7.550781 23.84375 -5.625 C 22.53125 -3.695312 20.867188 -2.195312 18.859375 -1.125 C 16.847656 -0.0507812 14.582031 0.484375 12.0625 0.484375 Z M 12.765625 -4.90625 C 14.515625 -4.90625 15.96875 -5.632812 17.125 -7.09375 C 18.289062 -8.550781 19.054688 -10.382812 19.421875 -12.59375 C 19.773438 -14.757812 19.632812 -16.550781 19 -17.96875 C 18.363281 -19.394531 17.1875 -20.109375 15.46875 -20.109375 C 13.707031 -20.109375 12.242188 -19.375 11.078125 -17.90625 C 9.921875 -16.4375 9.164062 -14.59375 8.8125 -12.375 C 8.457031 -10.21875 8.597656 -8.429688 9.234375 -7.015625 C 9.867188 -5.609375 11.046875 -4.90625 12.765625 -4.90625 Z M 12.765625 -4.90625 "/></g></g></g><g fill="#ffffff" fill-opacity="1"><g transform="translate(197.760315, 201.245524)"><g><path d="M -0.875 9.40625 L 4.875 -25.09375 L 11.734375 -25.09375 L 11.046875 -20.875 L 11.34375 -20.875 C 11.75 -21.5625 12.300781 -22.253906 13 -22.953125 C 13.707031 -23.648438 14.578125 -24.234375 15.609375 -24.703125 C 16.640625 -25.179688 17.851562 -25.421875 19.25 -25.421875 C 21.082031 -25.421875 22.6875 -24.941406 24.0625 -23.984375 C 25.445312 -23.035156 26.441406 -21.601562 27.046875 -19.6875 C 27.660156 -17.78125 27.726562 -15.390625 27.25 -12.515625 C 26.789062 -9.710938 25.945312 -7.347656 24.71875 -5.421875 C 23.5 -3.503906 22.035156 -2.050781 20.328125 -1.0625 C 18.617188 -0.0820312 16.816406 0.40625 14.921875 0.40625 C 13.566406 0.40625 12.457031 0.179688 11.59375 -0.265625 C 10.738281 -0.710938 10.066406 -1.273438 9.578125 -1.953125 C 9.097656 -2.628906 8.753906 -3.316406 8.546875 -4.015625 L 8.296875 -4.015625 L 6.078125 9.40625 Z M 9.59375 -12.546875 C 9.226562 -10.316406 9.390625 -8.519531 10.078125 -7.15625 C 10.773438 -5.800781 11.960938 -5.125 13.640625 -5.125 C 15.359375 -5.125 16.773438 -5.8125 17.890625 -7.1875 C 19.003906 -8.570312 19.753906 -10.359375 20.140625 -12.546875 C 20.492188 -14.722656 20.332031 -16.488281 19.65625 -17.84375 C 18.988281 -19.195312 17.796875 -19.875 16.078125 -19.875 C 14.398438 -19.875 12.988281 -19.210938 11.84375 -17.890625 C 10.695312 -16.566406 9.945312 -14.785156 9.59375 -12.546875 Z M 9.59375 -12.546875 "/></g></g></g><g fill="#ffffff" fill-opacity="1"><g transform="translate(224.18273, 201.245524)"><g><path d="M 18.21875 -25.09375 L 17.34375 -19.859375 L 12.609375 -19.859375 L 10.578125 -7.703125 C 10.421875 -6.742188 10.535156 -6.097656 10.921875 -5.765625 C 11.304688 -5.429688 11.847656 -5.265625 12.546875 -5.265625 C 12.867188 -5.265625 13.195312 -5.289062 13.53125 -5.34375 C 13.875 -5.40625 14.132812 -5.453125 14.3125 -5.484375 L 14.578125 -0.3125 C 14.179688 -0.1875 13.65625 -0.0507812 13 0.09375 C 12.34375 0.238281 11.566406 0.320312 10.671875 0.34375 C 8.109375 0.4375 6.160156 -0.113281 4.828125 -1.3125 C 3.503906 -2.519531 3.0625 -4.347656 3.5 -6.796875 L 5.65625 -19.859375 L 2.21875 -19.859375 L 3.109375 -25.09375 L 6.515625 -25.09375 L 7.515625 -31.109375 L 14.46875 -31.109375 L 13.484375 -25.09375 Z M 18.21875 -25.09375 "/></g></g></g><g fill="#ffffff" fill-opacity="1"><g transform="translate(239.383859, 201.245524)"><g><path d="M 0.6875 0 L 4.875 -25.09375 L 11.828125 -25.09375 L 7.640625 0 Z M 9.046875 -28.359375 C 8.015625 -28.359375 7.164062 -28.707031 6.5 -29.40625 C 5.84375 -30.101562 5.570312 -30.929688 5.6875 -31.890625 C 5.8125 -32.859375 6.28125 -33.679688 7.09375 -34.359375 C 7.90625 -35.046875 8.828125 -35.390625 9.859375 -35.390625 C 10.890625 -35.390625 11.734375 -35.046875 12.390625 -34.359375 C 13.046875 -33.679688 13.320312 -32.859375 13.21875 -31.890625 C 13.113281 -30.929688 12.648438 -30.101562 11.828125 -29.40625 C 11.015625 -28.707031 10.085938 -28.359375 9.046875 -28.359375 Z M 9.046875 -28.359375 "/></g></g></g><g fill="#ffffff" fill-opacity="1"><g transform="translate(249.227505, 201.245524)"><g><path d="M 34.265625 -16.265625 C 33.671875 -12.691406 32.492188 -9.660156 30.734375 -7.171875 C 28.984375 -4.679688 26.851562 -2.785156 24.34375 -1.484375 C 21.832031 -0.191406 19.128906 0.453125 16.234375 0.453125 C 13.203125 0.453125 10.582031 -0.234375 8.375 -1.609375 C 6.175781 -2.992188 4.585938 -4.992188 3.609375 -7.609375 C 2.640625 -10.234375 2.460938 -13.398438 3.078125 -17.109375 C 3.660156 -20.691406 4.828125 -23.726562 6.578125 -26.21875 C 8.335938 -28.71875 10.476562 -30.625 13 -31.9375 C 15.53125 -33.25 18.25 -33.90625 21.15625 -33.90625 C 24.1875 -33.90625 26.789062 -33.207031 28.96875 -31.8125 C 31.15625 -30.425781 32.738281 -28.414062 33.71875 -25.78125 C 34.695312 -23.15625 34.878906 -19.984375 34.265625 -16.265625 Z M 27.234375 -17.109375 C 27.796875 -20.546875 27.492188 -23.160156 26.328125 -24.953125 C 25.160156 -26.753906 23.34375 -27.65625 20.875 -27.65625 C 18.1875 -27.65625 15.863281 -26.660156 13.90625 -24.671875 C 11.957031 -22.691406 10.6875 -19.890625 10.09375 -16.265625 C 9.5 -12.816406 9.804688 -10.207031 11.015625 -8.4375 C 12.222656 -6.675781 14.050781 -5.796875 16.5 -5.796875 C 19.164062 -5.796875 21.46875 -6.769531 23.40625 -8.71875 C 25.351562 -10.675781 26.628906 -13.472656 27.234375 -17.109375 Z M 27.234375 -17.109375 "/></g></g></g><g fill="#ffffff" fill-opacity="1"><g transform="translate(282.526434, 201.245524)"><g><path d="M 22.890625 -23.734375 C 22.941406 -25.097656 22.539062 -26.148438 21.6875 -26.890625 C 20.84375 -27.628906 19.578125 -28 17.890625 -28 C 16.160156 -28 14.773438 -27.644531 13.734375 -26.9375 C 12.703125 -26.238281 12.09375 -25.347656 11.90625 -24.265625 C 11.664062 -23.078125 12.023438 -22.164062 12.984375 -21.53125 C 13.953125 -20.90625 15.128906 -20.429688 16.515625 -20.109375 L 19.390625 -19.390625 C 21.253906 -18.953125 22.867188 -18.316406 24.234375 -17.484375 C 25.609375 -16.660156 26.625 -15.597656 27.28125 -14.296875 C 27.9375 -12.992188 28.101562 -11.414062 27.78125 -9.5625 C 27.269531 -6.5 25.726562 -4.0625 23.15625 -2.25 C 20.582031 -0.4375 17.25 0.46875 13.15625 0.46875 C 9.113281 0.46875 6.03125 -0.457031 3.90625 -2.3125 C 1.78125 -4.164062 0.972656 -6.894531 1.484375 -10.5 L 8.328125 -10.5 C 8.148438 -8.820312 8.597656 -7.5625 9.671875 -6.71875 C 10.742188 -5.875 12.203125 -5.453125 14.046875 -5.453125 C 15.867188 -5.453125 17.375 -5.832031 18.5625 -6.59375 C 19.757812 -7.363281 20.453125 -8.359375 20.640625 -9.578125 C 20.835938 -10.691406 20.492188 -11.5625 19.609375 -12.1875 C 18.722656 -12.8125 17.40625 -13.332031 15.65625 -13.75 L 12.15625 -14.671875 C 9.46875 -15.359375 7.425781 -16.429688 6.03125 -17.890625 C 4.644531 -19.359375 4.148438 -21.320312 4.546875 -23.78125 C 4.890625 -25.820312 5.734375 -27.597656 7.078125 -29.109375 C 8.421875 -30.617188 10.117188 -31.796875 12.171875 -32.640625 C 14.222656 -33.484375 16.472656 -33.90625 18.921875 -33.90625 C 21.398438 -33.90625 23.492188 -33.476562 25.203125 -32.625 C 26.910156 -31.769531 28.15625 -30.582031 28.9375 -29.0625 C 29.726562 -27.539062 29.972656 -25.765625 29.671875 -23.734375 Z M 22.890625 -23.734375 "/></g></g></g><g clip-path="url(#5a0f215e2f)"><g clip-path="url(#3f738347f7)"><path fill="#ffffff" d="M 88.359375 176.117188 L 107.246094 176.117188 L 107.246094 183.757812 L 88.359375 183.757812 Z M 88.359375 176.117188 " fill-opacity="1" fill-rule="nonzero"/></g></g><g clip-path="url(#e9a923ab2d)"><g clip-path="url(#782198f097)"><path fill="#ffffff" d="M 98.824219 185.082031 L 117.710938 185.082031 L 117.710938 192.71875 L 98.824219 192.71875 Z M 98.824219 185.082031 " fill-opacity="1" fill-rule="nonzero"/></g></g><g clip-path="url(#4563236d4c)"><g clip-path="url(#47880252e3)"><path fill="#ffffff" d="M 88.359375 194.046875 L 107.246094 194.046875 L 107.246094 201.683594 L 88.359375 201.683594 Z M 88.359375 194.046875 " fill-opacity="1" fill-rule="nonzero"/></g></g><g clip-path="url(#e4236fe687)"><g clip-path="url(#e880c86a09)"><path fill="#ffffff" d="M 78.917969 184.90625 L 97.804688 184.90625 L 97.804688 192.546875 L 78.917969 192.546875 Z M 78.917969 184.90625 " fill-opacity="1" fill-rule="nonzero"/></g></g><g clip-path="url(#aa6282ecad)"><g clip-path="url(#acbd12ab7e)"><path fill="#ffffff" d="M 98.824219 203.007812 L 117.710938 203.007812 L 117.710938 210.648438 L 98.824219 210.648438 Z M 98.824219 203.007812 " fill-opacity="1" fill-rule="nonzero"/></g></g><g clip-path="url(#7e64b0c195)"><g clip-path="url(#b870010e24)"><path fill="#ffffff" d="M 78.917969 203.007812 L 97.804688 203.007812 L 97.804688 210.648438 L 78.917969 210.648438 Z M 78.917969 203.007812 " fill-opacity="1" fill-rule="nonzero"/></g></g><g clip-path="url(#159ca4e316)"><g clip-path="url(#36285b78f9)"><path fill="#ffffff" d="M 59.285156 203.007812 L 78.171875 203.007812 L 78.171875 210.648438 L 59.285156 210.648438 Z M 59.285156 203.007812 " fill-opacity="1" fill-rule="nonzero"/></g></g><g clip-path="url(#fea002e27e)"><g clip-path="url(#d9dd211a39)"><path fill="#ffffff" d="M 68.726562 193.957031 L 87.613281 193.957031 L 87.613281 201.597656 L 68.726562 201.597656 Z M 68.726562 193.957031 " fill-opacity="1" fill-rule="nonzero"/></g></g><g clip-path="url(#2911e9233d)"><g clip-path="url(#f37886482b)"><path fill="#ffffff" d="M 59.285156 185.121094 L 78.171875 185.121094 L 78.171875 192.757812 L 59.285156 192.757812 Z M 59.285156 185.121094 " fill-opacity="1" fill-rule="nonzero"/></g></g><g clip-path="url(#87977f6967)"><g clip-path="url(#e8e748d39b)"><path fill="#ffffff" d="M 68.726562 176.253906 L 87.613281 176.253906 L 87.613281 183.890625 L 68.726562 183.890625 Z M 68.726562 176.253906 " fill-opacity="1" fill-rule="nonzero"/></g></g></svg>