<?xml version="1.0" encoding="UTF-8" standalone="no"?>
<svg
   width="338.04868"
   zoomAndPan="magnify"
   viewBox="0 0 253.53651 45.796874"
   height="61.0625"
   preserveAspectRatio="xMidYMid"
   version="1.0"
   id="svg70"
   sodipodi:docname="logo-light.svg"
   xmlns:inkscape="http://www.inkscape.org/namespaces/inkscape"
   xmlns:sodipodi="http://sodipodi.sourceforge.net/DTD/sodipodi-0.dtd"
   xmlns="http://www.w3.org/2000/svg"
   xmlns:svg="http://www.w3.org/2000/svg">
  <sodipodi:namedview
     id="namedview70"
     pagecolor="#ffffff"
     bordercolor="#666666"
     borderopacity="1.0"
     inkscape:showpageshadow="2"
     inkscape:pageopacity="0.0"
     inkscape:pagecheckerboard="0"
     inkscape:deskcolor="#d1d1d1">
    <inkscape:page
       x="0"
       y="0"
       width="253.53651"
       height="45.796875"
       id="page2"
       margin="0"
       bleed="0" />
  </sodipodi:namedview>
  <defs
     id="defs23">
    <clipPath
       id="0d585256b1">
      <path
         d="m 98,165 h 21 v 12 H 98 Z m 0,0"
         clip-rule="nonzero"
         id="path1" />
    </clipPath>
    <clipPath
       id="274fbff6b4">
      <path
         d="m 100.00781,165.37891 18.78125,3.04687 -1.27343,7.83203 -18.781255,-3.05078 z m 0,0"
         clip-rule="nonzero"
         id="path2" />
    </clipPath>
    <clipPath
       id="98d810e9e6">
      <path
         d="m 101.48828,165.61719 15.78906,2.5625 c 0.39063,0.0664 0.74219,0.28125 0.97657,0.60547 0.23047,0.32421 0.32812,0.72265 0.26172,1.11718 l -0.78907,4.86719 c -0.0625,0.39453 -0.28125,0.74609 -0.60156,0.97656 -0.32422,0.23438 -0.72656,0.32813 -1.12109,0.26563 l -15.78907,-2.5625 c -0.390621,-0.0664 -0.742184,-0.28125 -0.976559,-0.60547 -0.230469,-0.32031 -0.328125,-0.72266 -0.261719,-1.11719 l 0.789063,-4.86719 c 0.0625,-0.39453 0.281255,-0.74609 0.605465,-0.97656 0.32032,-0.23437 0.72266,-0.32812 1.11719,-0.26562 z m 0,0"
         clip-rule="nonzero"
         id="path3" />
    </clipPath>
    <clipPath
       id="b33d9c5d78">
      <path
         d="m 88.359375,176.11719 h 18.886715 v 7.64062 H 88.359375 Z m 0,0"
         clip-rule="nonzero"
         id="path4" />
    </clipPath>
    <clipPath
       id="98f361ac42">
      <path
         d="m 89.859375,176.11719 h 15.882815 c 0.39453,0 0.77734,0.16015 1.05859,0.4414 0.28125,0.28125 0.44141,0.66016 0.44141,1.0586 v 4.64062 c 0,0.39453 -0.16016,0.77735 -0.44141,1.0586 -0.28125,0.28125 -0.66406,0.4414 -1.05859,0.4414 H 89.859375 c -0.398437,0 -0.78125,-0.16015 -1.0625,-0.4414 -0.28125,-0.28125 -0.4375,-0.66407 -0.4375,-1.0586 v -4.64062 c 0,-0.39844 0.15625,-0.77735 0.4375,-1.0586 0.28125,-0.28125 0.664063,-0.4414 1.0625,-0.4414 z m 0,0"
         clip-rule="nonzero"
         id="path5" />
    </clipPath>
    <clipPath
       id="30bde20bf7">
      <path
         d="m 98.824219,185.08203 h 18.886721 v 7.63672 H 98.824219 Z m 0,0"
         clip-rule="nonzero"
         id="path6" />
    </clipPath>
    <clipPath
       id="8b7f8ea816">
      <path
         d="m 100.32422,185.08203 h 15.88281 c 0.39844,0 0.77735,0.15625 1.0586,0.4375 0.28125,0.28125 0.4414,0.66406 0.4414,1.0625 v 4.63672 c 0,0.39844 -0.16015,0.78125 -0.4414,1.0625 -0.28125,0.28125 -0.66016,0.4375 -1.0586,0.4375 h -15.88281 c -0.398439,0 -0.781251,-0.15625 -1.062501,-0.4375 -0.28125,-0.28125 -0.4375,-0.66406 -0.4375,-1.0625 v -4.63672 c 0,-0.39844 0.15625,-0.78125 0.4375,-1.0625 0.28125,-0.28125 0.664062,-0.4375 1.062501,-0.4375 z m 0,0"
         clip-rule="nonzero"
         id="path7" />
    </clipPath>
    <clipPath
       id="4bc5d9f08a">
      <path
         d="m 88.359375,194.04687 h 18.886715 v 7.63672 H 88.359375 Z m 0,0"
         clip-rule="nonzero"
         id="path8" />
    </clipPath>
    <clipPath
       id="5abb67eff7">
      <path
         d="m 89.859375,194.04687 h 15.882815 c 0.39453,0 0.77734,0.15625 1.05859,0.4375 0.28125,0.28125 0.44141,0.66407 0.44141,1.0625 v 4.63672 c 0,0.39844 -0.16016,0.78125 -0.44141,1.0625 -0.28125,0.28125 -0.66406,0.4375 -1.05859,0.4375 H 89.859375 c -0.398437,0 -0.78125,-0.15625 -1.0625,-0.4375 -0.28125,-0.28125 -0.4375,-0.66406 -0.4375,-1.0625 v -4.63672 c 0,-0.39843 0.15625,-0.78125 0.4375,-1.0625 0.28125,-0.28125 0.664063,-0.4375 1.0625,-0.4375 z m 0,0"
         clip-rule="nonzero"
         id="path9" />
    </clipPath>
    <clipPath
       id="0611867735">
      <path
         d="m 78.917969,184.90625 h 18.886719 v 7.64062 H 78.917969 Z m 0,0"
         clip-rule="nonzero"
         id="path10" />
    </clipPath>
    <clipPath
       id="af298aa31d">
      <path
         d="m 80.417969,184.90625 h 15.882812 c 0.394531,0 0.777344,0.16016 1.058594,0.44141 0.28125,0.28125 0.441406,0.66015 0.441406,1.05859 v 4.64062 c 0,0.39454 -0.160156,0.77735 -0.441406,1.0586 -0.28125,0.28125 -0.664063,0.4414 -1.058594,0.4414 H 80.417969 c -0.398438,0 -0.78125,-0.16015 -1.0625,-0.4414 -0.28125,-0.28125 -0.4375,-0.66406 -0.4375,-1.0586 v -4.64062 c 0,-0.39844 0.15625,-0.77734 0.4375,-1.05859 0.28125,-0.28125 0.664062,-0.44141 1.0625,-0.44141 z m 0,0"
         clip-rule="nonzero"
         id="path11" />
    </clipPath>
    <clipPath
       id="bad7cecbfd">
      <path
         d="m 98.824219,203.00781 h 18.886721 v 7.64063 H 98.824219 Z m 0,0"
         clip-rule="nonzero"
         id="path12" />
    </clipPath>
    <clipPath
       id="3f1b55e486">
      <path
         d="m 100.32422,203.00781 h 15.88281 c 0.39844,0 0.77735,0.16016 1.0586,0.44141 0.28125,0.28125 0.4414,0.66406 0.4414,1.05859 v 4.64063 c 0,0.39843 -0.16015,0.77734 -0.4414,1.05859 -0.28125,0.28125 -0.66016,0.44141 -1.0586,0.44141 h -15.88281 c -0.398439,0 -0.781251,-0.16016 -1.062501,-0.44141 -0.28125,-0.28125 -0.4375,-0.66016 -0.4375,-1.05859 v -4.64063 c 0,-0.39453 0.15625,-0.77734 0.4375,-1.05859 0.28125,-0.28125 0.664062,-0.44141 1.062501,-0.44141 z m 0,0"
         clip-rule="nonzero"
         id="path13" />
    </clipPath>
    <clipPath
       id="f2d259f4df">
      <path
         d="m 78.917969,203.00781 h 18.886719 v 7.64063 H 78.917969 Z m 0,0"
         clip-rule="nonzero"
         id="path14" />
    </clipPath>
    <clipPath
       id="4c12b96891">
      <path
         d="m 80.417969,203.00781 h 15.882812 c 0.394531,0 0.777344,0.16016 1.058594,0.44141 0.28125,0.28125 0.441406,0.66406 0.441406,1.05859 v 4.64063 c 0,0.39843 -0.160156,0.77734 -0.441406,1.05859 -0.28125,0.28125 -0.664063,0.44141 -1.058594,0.44141 H 80.417969 c -0.398438,0 -0.78125,-0.16016 -1.0625,-0.44141 -0.28125,-0.28125 -0.4375,-0.66016 -0.4375,-1.05859 v -4.64063 c 0,-0.39453 0.15625,-0.77734 0.4375,-1.05859 0.28125,-0.28125 0.664062,-0.44141 1.0625,-0.44141 z m 0,0"
         clip-rule="nonzero"
         id="path15" />
    </clipPath>
    <clipPath
       id="98c1df55fe">
      <path
         d="m 59.285156,203.00781 h 18.886719 v 7.64063 H 59.285156 Z m 0,0"
         clip-rule="nonzero"
         id="path16" />
    </clipPath>
    <clipPath
       id="8330a6eec9">
      <path
         d="m 60.785156,203.00781 h 15.882813 c 0.394531,0 0.777343,0.16016 1.058593,0.44141 0.28125,0.28125 0.441407,0.66406 0.441407,1.05859 v 4.64063 c 0,0.39843 -0.160157,0.77734 -0.441407,1.05859 -0.28125,0.28125 -0.664062,0.44141 -1.058593,0.44141 H 60.785156 c -0.398437,0 -0.78125,-0.16016 -1.0625,-0.44141 -0.28125,-0.28125 -0.4375,-0.66016 -0.4375,-1.05859 v -4.64063 c 0,-0.39453 0.15625,-0.77734 0.4375,-1.05859 0.28125,-0.28125 0.664063,-0.44141 1.0625,-0.44141 z m 0,0"
         clip-rule="nonzero"
         id="path17" />
    </clipPath>
    <clipPath
       id="869e6c9c97">
      <path
         d="m 68.726562,193.95703 h 18.886719 v 7.64063 H 68.726562 Z m 0,0"
         clip-rule="nonzero"
         id="path18" />
    </clipPath>
    <clipPath
       id="eaf98d8ff2">
      <path
         d="m 70.226562,193.95703 h 15.882813 c 0.394531,0 0.777344,0.16016 1.058594,0.44141 0.28125,0.28125 0.441406,0.66015 0.441406,1.05859 v 4.64063 c 0,0.39843 -0.160156,0.77734 -0.441406,1.05859 -0.28125,0.28125 -0.664063,0.44141 -1.058594,0.44141 H 70.226562 c -0.398437,0 -0.78125,-0.16016 -1.0625,-0.44141 -0.28125,-0.28125 -0.4375,-0.66016 -0.4375,-1.05859 v -4.64063 c 0,-0.39844 0.15625,-0.77734 0.4375,-1.05859 0.28125,-0.28125 0.664063,-0.44141 1.0625,-0.44141 z m 0,0"
         clip-rule="nonzero"
         id="path19" />
    </clipPath>
    <clipPath
       id="ea47d84ed9">
      <path
         d="m 59.285156,185.12109 h 18.886719 v 7.63672 H 59.285156 Z m 0,0"
         clip-rule="nonzero"
         id="path20" />
    </clipPath>
    <clipPath
       id="ae57394d9c">
      <path
         d="m 60.785156,185.12109 h 15.882813 c 0.394531,0 0.777343,0.15625 1.058593,0.4375 0.28125,0.28125 0.441407,0.66407 0.441407,1.0625 v 4.63672 c 0,0.39844 -0.160157,0.78125 -0.441407,1.0625 -0.28125,0.28125 -0.664062,0.4375 -1.058593,0.4375 H 60.785156 c -0.398437,0 -0.78125,-0.15625 -1.0625,-0.4375 -0.28125,-0.28125 -0.4375,-0.66406 -0.4375,-1.0625 v -4.63672 c 0,-0.39843 0.15625,-0.78125 0.4375,-1.0625 0.28125,-0.28125 0.664063,-0.4375 1.0625,-0.4375 z m 0,0"
         clip-rule="nonzero"
         id="path21" />
    </clipPath>
    <clipPath
       id="e268e1a6c4">
      <path
         d="m 68.726562,176.25391 h 18.886719 v 7.63671 H 68.726562 Z m 0,0"
         clip-rule="nonzero"
         id="path22" />
    </clipPath>
    <clipPath
       id="dd7a6478ca">
      <path
         d="m 70.226562,176.25391 h 15.882813 c 0.394531,0 0.777344,0.15625 1.058594,0.4375 0.28125,0.28125 0.441406,0.66406 0.441406,1.0625 v 4.63671 c 0,0.39844 -0.160156,0.78125 -0.441406,1.0625 -0.28125,0.28125 -0.664063,0.4375 -1.058594,0.4375 H 70.226562 c -0.398437,0 -0.78125,-0.15625 -1.0625,-0.4375 -0.28125,-0.28125 -0.4375,-0.66406 -0.4375,-1.0625 v -4.63671 c 0,-0.39844 0.15625,-0.78125 0.4375,-1.0625 0.28125,-0.28125 0.664063,-0.4375 1.0625,-0.4375 z m 0,0"
         clip-rule="nonzero"
         id="path23" />
    </clipPath>
  </defs>
  <g
     clip-path="url(#0d585256b1)"
     id="g26"
     style="fill:#000000;fill-opacity:1;stroke:#000000;stroke-opacity:1"
     transform="translate(-59.285155,-165.35491)">
    <g
       clip-path="url(#274fbff6b4)"
       id="g25"
       style="fill:#000000;fill-opacity:1;stroke:#000000;stroke-opacity:1">
      <g
         clip-path="url(#98d810e9e6)"
         id="g24"
         style="fill:#000000;fill-opacity:1;stroke:#000000;stroke-opacity:1">
        <path
           fill="#ffffff"
           d="m 100.00781,165.37891 18.75,3.04296 -1.27343,7.82813 -18.750005,-3.04297 z m 0,0"
           fill-opacity="1"
           fill-rule="nonzero"
           id="path24"
           style="fill:#000000;fill-opacity:1;stroke:#000000;stroke-opacity:1" />
      </g>
    </g>
  </g>
  <g
     fill="#ffffff"
     fill-opacity="1"
     id="g29"
     style="fill:#000000;fill-opacity:1;stroke:#000000;stroke-opacity:1"
     transform="translate(-59.285155,-165.35491)">
    <g
       transform="translate(128.73432,201.24552)"
       id="g28"
       style="fill:#000000;fill-opacity:1;stroke:#000000;stroke-opacity:1">
      <g
         id="g27"
         style="fill:#000000;fill-opacity:1;stroke:#000000;stroke-opacity:1">
        <path
           d="m -0.875,9.40625 5.75,-34.5 h 6.859375 l -0.6875,4.21875 H 11.34375 C 11.75,-21.5625 12.300781,-22.253906 13,-22.953125 c 0.707031,-0.695313 1.578125,-1.28125 2.609375,-1.75 1.03125,-0.476563 2.242187,-0.71875 3.640625,-0.71875 1.832031,0 3.4375,0.480469 4.8125,1.4375 1.382812,0.949219 2.378906,2.382813 2.984375,4.296875 0.613281,1.90625 0.679687,4.296875 0.203125,7.171875 -0.460938,2.804687 -1.304688,5.167969 -2.53125,7.09375 -1.21875,1.917969 -2.683594,3.371094 -4.390625,4.359375 -1.710937,0.9804688 -3.511719,1.46875 -5.40625,1.46875 -1.355469,0 -2.464844,-0.226562 -3.328125,-0.671875 -0.855469,-0.445313 -1.527344,-1.007813 -2.015625,-1.6875 -0.480469,-0.675781 -0.824219,-1.363281 -1.03125,-2.0625 h -0.25 L 6.078125,9.40625 Z M 9.59375,-12.546875 c -0.367188,2.230469 -0.203125,4.027344 0.484375,5.390625 0.695313,1.355469 1.882813,2.03125 3.5625,2.03125 1.71875,0 3.132813,-0.6875 4.25,-2.0625 1.113281,-1.382812 1.863281,-3.171875 2.25,-5.359375 0.351563,-2.175781 0.191406,-3.941406 -0.484375,-5.296875 -0.667969,-1.351562 -1.859375,-2.03125 -3.578125,-2.03125 -1.679687,0 -3.089844,0.664062 -4.234375,1.984375 -1.148438,1.324219 -1.898438,3.105469 -2.25,5.34375 z m 0,0"
           id="path26"
           style="fill:#000000;fill-opacity:1;stroke:#000000;stroke-opacity:1" />
      </g>
    </g>
  </g>
  <g
     fill="#ffffff"
     fill-opacity="1"
     id="g32"
     style="fill:#000000;fill-opacity:1;stroke:#000000;stroke-opacity:1"
     transform="translate(-59.285155,-165.35491)">
    <g
       transform="translate(155.15674,201.24552)"
       id="g31"
       style="fill:#000000;fill-opacity:1;stroke:#000000;stroke-opacity:1">
      <g
         id="g30"
         style="fill:#000000;fill-opacity:1;stroke:#000000;stroke-opacity:1">
        <path
           d="M 0.6875,0 4.875,-25.09375 h 6.734375 l -0.734375,4.375 h 0.265625 c 0.71875,-1.550781 1.675781,-2.726562 2.875,-3.53125 1.207031,-0.800781 2.523437,-1.203125 3.953125,-1.203125 1.332031,0 2.410156,0.308594 3.234375,0.921875 l -3,5.71875 c -0.3125,-0.15625 -0.65625,-0.285156 -1.03125,-0.390625 -0.375,-0.113281 -0.804687,-0.171875 -1.28125,-0.171875 -1.398437,0 -2.664063,0.480469 -3.796875,1.4375 -1.125,0.960938 -1.828125,2.203125 -2.109375,3.734375 L 7.640625,0 Z m 0,0"
           id="path29"
           style="fill:#000000;fill-opacity:1;stroke:#000000;stroke-opacity:1" />
      </g>
    </g>
  </g>
  <g
     fill="#ffffff"
     fill-opacity="1"
     id="g35"
     style="fill:#000000;fill-opacity:1;stroke:#000000;stroke-opacity:1"
     transform="translate(-59.285155,-165.35491)">
    <g
       transform="translate(172.20358,201.24552)"
       id="g34"
       style="fill:#000000;fill-opacity:1;stroke:#000000;stroke-opacity:1">
      <g
         id="g33"
         style="fill:#000000;fill-opacity:1;stroke:#000000;stroke-opacity:1">
        <path
           d="M 12.0625,0.484375 C 9.5,0.484375 7.378906,-0.0625 5.703125,-1.15625 4.035156,-2.25 2.859375,-3.773438 2.171875,-5.734375 1.492188,-7.691406 1.367188,-9.96875 1.796875,-12.5625 c 0.414063,-2.570312 1.273437,-4.820312 2.578125,-6.75 1.3125,-1.925781 2.972656,-3.425781 4.984375,-4.5 2.007813,-1.070312 4.28125,-1.609375 6.8125,-1.609375 2.550781,0 4.664063,0.546875 6.34375,1.640625 1.675781,1.09375 2.851563,2.625 3.53125,4.59375 0.675781,1.960938 0.804687,4.242188 0.390625,6.84375 -0.417969,2.554688 -1.28125,4.792969 -2.59375,6.71875 -1.3125,1.929688 -2.976562,3.429688 -4.984375,4.5 -2.011719,1.0742188 -4.277344,1.609375 -6.796875,1.609375 z m 0.703125,-5.390625 c 1.75,0 3.203125,-0.726562 4.359375,-2.1875 1.164062,-1.457031 1.929688,-3.289062 2.296875,-5.5 0.351563,-2.164062 0.210937,-3.957031 -0.421875,-5.375 -0.636719,-1.425781 -1.8125,-2.140625 -3.53125,-2.140625 -1.761719,0 -3.226562,0.734375 -4.390625,2.203125 -1.15625,1.46875 -1.914063,3.3125 -2.265625,5.53125 -0.355469,2.15625 -0.214844,3.945312 0.421875,5.359375 0.632813,1.40625 1.8125,2.109375 3.53125,2.109375 z m 0,0"
           id="path32"
           style="fill:#000000;fill-opacity:1;stroke:#000000;stroke-opacity:1" />
      </g>
    </g>
  </g>
  <g
     fill="#ffffff"
     fill-opacity="1"
     id="g38"
     style="fill:#000000;fill-opacity:1;stroke:#000000;stroke-opacity:1"
     transform="translate(-59.285155,-165.35491)">
    <g
       transform="translate(197.76031,201.24552)"
       id="g37"
       style="fill:#000000;fill-opacity:1;stroke:#000000;stroke-opacity:1">
      <g
         id="g36"
         style="fill:#000000;fill-opacity:1;stroke:#000000;stroke-opacity:1">
        <path
           d="m -0.875,9.40625 5.75,-34.5 h 6.859375 l -0.6875,4.21875 H 11.34375 C 11.75,-21.5625 12.300781,-22.253906 13,-22.953125 c 0.707031,-0.695313 1.578125,-1.28125 2.609375,-1.75 1.03125,-0.476563 2.242187,-0.71875 3.640625,-0.71875 1.832031,0 3.4375,0.480469 4.8125,1.4375 1.382812,0.949219 2.378906,2.382813 2.984375,4.296875 0.613281,1.90625 0.679687,4.296875 0.203125,7.171875 -0.460938,2.804687 -1.304688,5.167969 -2.53125,7.09375 -1.21875,1.917969 -2.683594,3.371094 -4.390625,4.359375 -1.710937,0.9804688 -3.511719,1.46875 -5.40625,1.46875 -1.355469,0 -2.464844,-0.226562 -3.328125,-0.671875 -0.855469,-0.445313 -1.527344,-1.007813 -2.015625,-1.6875 -0.480469,-0.675781 -0.824219,-1.363281 -1.03125,-2.0625 h -0.25 L 6.078125,9.40625 Z M 9.59375,-12.546875 c -0.367188,2.230469 -0.203125,4.027344 0.484375,5.390625 0.695313,1.355469 1.882813,2.03125 3.5625,2.03125 1.71875,0 3.132813,-0.6875 4.25,-2.0625 1.113281,-1.382812 1.863281,-3.171875 2.25,-5.359375 0.351563,-2.175781 0.191406,-3.941406 -0.484375,-5.296875 -0.667969,-1.351562 -1.859375,-2.03125 -3.578125,-2.03125 -1.679687,0 -3.089844,0.664062 -4.234375,1.984375 -1.148438,1.324219 -1.898438,3.105469 -2.25,5.34375 z m 0,0"
           id="path35"
           style="fill:#000000;fill-opacity:1;stroke:#000000;stroke-opacity:1" />
      </g>
    </g>
  </g>
  <g
     fill="#ffffff"
     fill-opacity="1"
     id="g41"
     style="fill:#000000;fill-opacity:1;stroke:#000000;stroke-opacity:1"
     transform="translate(-59.285155,-165.35491)">
    <g
       transform="translate(224.18273,201.24552)"
       id="g40"
       style="fill:#000000;fill-opacity:1;stroke:#000000;stroke-opacity:1">
      <g
         id="g39"
         style="fill:#000000;fill-opacity:1;stroke:#000000;stroke-opacity:1">
        <path
           d="m 18.21875,-25.09375 -0.875,5.234375 h -4.734375 l -2.03125,12.15625 c -0.15625,0.960937 -0.04297,1.605469 0.34375,1.9375 0.382813,0.335937 0.925781,0.5 1.625,0.5 0.320313,0 0.648437,-0.023437 0.984375,-0.078125 0.34375,-0.0625 0.601562,-0.109375 0.78125,-0.140625 L 14.578125,-0.3125 C 14.179688,-0.1875 13.65625,-0.0507812 13,0.09375 12.34375,0.238281 11.566406,0.320312 10.671875,0.34375 8.109375,0.4375 6.160156,-0.113281 4.828125,-1.3125 3.503906,-2.519531 3.0625,-4.347656 3.5,-6.796875 l 2.15625,-13.0625 h -3.4375 l 0.890625,-5.234375 h 3.40625 l 1,-6.015625 h 6.953125 l -0.984375,6.015625 z m 0,0"
           id="path38"
           style="fill:#000000;fill-opacity:1;stroke:#000000;stroke-opacity:1" />
      </g>
    </g>
  </g>
  <g
     fill="#ffffff"
     fill-opacity="1"
     id="g44"
     style="fill:#000000;fill-opacity:1;stroke:#000000;stroke-opacity:1"
     transform="translate(-59.285155,-165.35491)">
    <g
       transform="translate(239.38386,201.24552)"
       id="g43"
       style="fill:#000000;fill-opacity:1;stroke:#000000;stroke-opacity:1">
      <g
         id="g42"
         style="fill:#000000;fill-opacity:1;stroke:#000000;stroke-opacity:1">
        <path
           d="M 0.6875,0 4.875,-25.09375 h 6.953125 L 7.640625,0 Z m 8.359375,-28.359375 c -1.03125,0 -1.882813,-0.347656 -2.546875,-1.046875 -0.65625,-0.695312 -0.929688,-1.523438 -0.8125,-2.484375 0.125,-0.96875 0.59375,-1.789063 1.40625,-2.46875 0.8125,-0.6875 1.734375,-1.03125 2.765625,-1.03125 1.03125,0 1.875,0.34375 2.53125,1.03125 0.65625,0.679687 0.929687,1.5 0.828125,2.46875 -0.105469,0.960937 -0.570312,1.789063 -1.390625,2.484375 -0.8125,0.699219 -1.742187,1.046875 -2.78125,1.046875 z m 0,0"
           id="path41"
           style="fill:#000000;fill-opacity:1;stroke:#000000;stroke-opacity:1" />
      </g>
    </g>
  </g>
  <g
     fill="#ffffff"
     fill-opacity="1"
     id="g47"
     style="fill:#000000;fill-opacity:1;stroke:#000000;stroke-opacity:1"
     transform="translate(-59.285155,-165.35491)">
    <g
       transform="translate(249.2275,201.24552)"
       id="g46"
       style="fill:#000000;fill-opacity:1;stroke:#000000;stroke-opacity:1">
      <g
         id="g45"
         style="fill:#000000;fill-opacity:1;stroke:#000000;stroke-opacity:1">
        <path
           d="m 34.265625,-16.265625 c -0.59375,3.574219 -1.773437,6.605469 -3.53125,9.09375 -1.75,2.492187 -3.882813,4.386719 -6.390625,5.6875 -2.511719,1.292969 -5.214844,1.9375 -8.109375,1.9375 -3.03125,0 -5.652344,-0.6875 -7.859375,-2.0625 -2.199219,-1.382813 -3.789062,-3.382813 -4.765625,-6 -0.96875,-2.625 -1.148437,-5.789063 -0.53125,-9.5 0.582031,-3.582031 1.75,-6.617187 3.5,-9.109375 1.757813,-2.5 3.898437,-4.40625 6.421875,-5.71875 2.53125,-1.3125 5.25,-1.96875 8.15625,-1.96875 3.03125,0 5.632812,0.699219 7.8125,2.09375 2.1875,1.386719 3.769531,3.398438 4.75,6.03125 0.976562,2.625 1.160156,5.796875 0.546875,9.515625 z m -7.03125,-0.84375 c 0.5625,-3.4375 0.257813,-6.050781 -0.90625,-7.84375 -1.167969,-1.800781 -2.984375,-2.703125 -5.453125,-2.703125 -2.6875,0 -5.011719,0.996094 -6.96875,2.984375 -1.949219,1.980469 -3.21875,4.78125 -3.8125,8.40625 -0.59375,3.449219 -0.289062,6.058594 0.921875,7.828125 1.207031,1.761719 3.035156,2.640625 5.484375,2.640625 2.664062,0 4.96875,-0.972656 6.90625,-2.921875 1.945312,-1.957031 3.222656,-4.753906 3.828125,-8.390625 z m 0,0"
           id="path44"
           style="fill:#000000;fill-opacity:1;stroke:#000000;stroke-opacity:1" />
      </g>
    </g>
  </g>
  <g
     fill="#ffffff"
     fill-opacity="1"
     id="g50"
     style="fill:#000000;fill-opacity:1;stroke:#000000;stroke-opacity:1"
     transform="translate(-59.285155,-165.35491)">
    <g
       transform="translate(282.52643,201.24552)"
       id="g49"
       style="fill:#000000;fill-opacity:1;stroke:#000000;stroke-opacity:1">
      <g
         id="g48"
         style="fill:#000000;fill-opacity:1;stroke:#000000;stroke-opacity:1">
        <path
           d="m 22.890625,-23.734375 c 0.05078,-1.363281 -0.351563,-2.414063 -1.203125,-3.15625 C 20.84375,-27.628906 19.578125,-28 17.890625,-28 c -1.730469,0 -3.117187,0.355469 -4.15625,1.0625 -1.03125,0.699219 -1.640625,1.589844 -1.828125,2.671875 -0.242188,1.1875 0.117188,2.101563 1.078125,2.734375 0.96875,0.625 2.144531,1.101562 3.53125,1.421875 l 2.875,0.71875 c 1.863281,0.4375 3.476563,1.074219 4.84375,1.90625 1.375,0.824219 2.390625,1.886719 3.046875,3.1875 0.65625,1.304687 0.820312,2.882813 0.5,4.734375 -0.511719,3.0625 -2.054688,5.5 -4.625,7.3125 -2.574219,1.8125 -5.90625,2.71875 -10,2.71875 -4.042969,0 -7.125,-0.925781 -9.25,-2.78125 C 1.78125,-4.164062 0.972656,-6.894531 1.484375,-10.5 h 6.84375 c -0.179687,1.679688 0.269531,2.9375 1.34375,3.78125 1.070313,0.84375 2.53125,1.265625 4.375,1.265625 1.820313,0 3.328125,-0.378906 4.515625,-1.140625 1.195312,-0.769531 1.890625,-1.765625 2.078125,-2.984375 0.195313,-1.113281 -0.148437,-1.984375 -1.03125,-2.609375 -0.886719,-0.625 -2.203125,-1.144531 -3.953125,-1.5625 l -3.5,-0.921875 c -2.6875,-0.6875 -4.730469,-1.757813 -6.125,-3.21875 -1.386719,-1.46875 -1.882812,-3.429687 -1.484375,-5.890625 0.34375,-2.039062 1.1875,-3.816406 2.53125,-5.328125 1.34375,-1.507813 3.039063,-2.6875 5.09375,-3.53125 2.050781,-0.84375 4.300781,-1.265625 6.75,-1.265625 2.476563,0 4.570313,0.429688 6.28125,1.28125 1.707031,0.855469 2.953125,2.042969 3.734375,3.5625 0.789062,1.523438 1.035156,3.296875 0.734375,5.328125 z m 0,0"
           id="path47"
           style="fill:#000000;fill-opacity:1;stroke:#000000;stroke-opacity:1" />
      </g>
    </g>
  </g>
  <g
     clip-path="url(#b33d9c5d78)"
     id="g52"
     style="fill:#000000;fill-opacity:1;stroke:#000000;stroke-opacity:1"
     transform="translate(-59.285155,-165.35491)">
    <g
       clip-path="url(#98f361ac42)"
       id="g51"
       style="fill:#000000;fill-opacity:1;stroke:#000000;stroke-opacity:1">
      <path
         fill="#ffffff"
         d="m 88.359375,176.11719 h 18.886715 v 7.64062 H 88.359375 Z m 0,0"
         fill-opacity="1"
         fill-rule="nonzero"
         id="path50"
         style="fill:#000000;fill-opacity:1;stroke:#000000;stroke-opacity:1" />
    </g>
  </g>
  <g
     clip-path="url(#30bde20bf7)"
     id="g54"
     style="fill:#000000;fill-opacity:1;stroke:#000000;stroke-opacity:1"
     transform="translate(-59.285155,-165.35491)">
    <g
       clip-path="url(#8b7f8ea816)"
       id="g53"
       style="fill:#000000;fill-opacity:1;stroke:#000000;stroke-opacity:1">
      <path
         fill="#ffffff"
         d="m 98.824219,185.08203 h 18.886721 v 7.63672 H 98.824219 Z m 0,0"
         fill-opacity="1"
         fill-rule="nonzero"
         id="path52"
         style="fill:#000000;fill-opacity:1;stroke:#000000;stroke-opacity:1" />
    </g>
  </g>
  <g
     clip-path="url(#4bc5d9f08a)"
     id="g56"
     style="fill:#000000;fill-opacity:1;stroke:#000000;stroke-opacity:1"
     transform="translate(-59.285155,-165.35491)">
    <g
       clip-path="url(#5abb67eff7)"
       id="g55"
       style="fill:#000000;fill-opacity:1;stroke:#000000;stroke-opacity:1">
      <path
         fill="#ffffff"
         d="m 88.359375,194.04687 h 18.886715 v 7.63672 H 88.359375 Z m 0,0"
         fill-opacity="1"
         fill-rule="nonzero"
         id="path54"
         style="fill:#000000;fill-opacity:1;stroke:#000000;stroke-opacity:1" />
    </g>
  </g>
  <g
     clip-path="url(#0611867735)"
     id="g58"
     style="fill:#000000;fill-opacity:1;stroke:#000000;stroke-opacity:1"
     transform="translate(-59.285155,-165.35491)">
    <g
       clip-path="url(#af298aa31d)"
       id="g57"
       style="fill:#000000;fill-opacity:1;stroke:#000000;stroke-opacity:1">
      <path
         fill="#ffffff"
         d="m 78.917969,184.90625 h 18.886719 v 7.64062 H 78.917969 Z m 0,0"
         fill-opacity="1"
         fill-rule="nonzero"
         id="path56"
         style="fill:#000000;fill-opacity:1;stroke:#000000;stroke-opacity:1" />
    </g>
  </g>
  <g
     clip-path="url(#bad7cecbfd)"
     id="g60"
     style="fill:#000000;fill-opacity:1;stroke:#000000;stroke-opacity:1"
     transform="translate(-59.285155,-165.35491)">
    <g
       clip-path="url(#3f1b55e486)"
       id="g59"
       style="fill:#000000;fill-opacity:1;stroke:#000000;stroke-opacity:1">
      <path
         fill="#ffffff"
         d="m 98.824219,203.00781 h 18.886721 v 7.64063 H 98.824219 Z m 0,0"
         fill-opacity="1"
         fill-rule="nonzero"
         id="path58"
         style="fill:#000000;fill-opacity:1;stroke:#000000;stroke-opacity:1" />
    </g>
  </g>
  <g
     clip-path="url(#f2d259f4df)"
     id="g62"
     style="fill:#000000;fill-opacity:1;stroke:#000000;stroke-opacity:1"
     transform="translate(-59.285155,-165.35491)">
    <g
       clip-path="url(#4c12b96891)"
       id="g61"
       style="fill:#000000;fill-opacity:1;stroke:#000000;stroke-opacity:1">
      <path
         fill="#ffffff"
         d="m 78.917969,203.00781 h 18.886719 v 7.64063 H 78.917969 Z m 0,0"
         fill-opacity="1"
         fill-rule="nonzero"
         id="path60"
         style="fill:#000000;fill-opacity:1;stroke:#000000;stroke-opacity:1" />
    </g>
  </g>
  <g
     clip-path="url(#98c1df55fe)"
     id="g64"
     style="fill:#000000;fill-opacity:1;stroke:#000000;stroke-opacity:1"
     transform="translate(-59.285155,-165.35491)">
    <g
       clip-path="url(#8330a6eec9)"
       id="g63"
       style="fill:#000000;fill-opacity:1;stroke:#000000;stroke-opacity:1">
      <path
         fill="#ffffff"
         d="m 59.285156,203.00781 h 18.886719 v 7.64063 H 59.285156 Z m 0,0"
         fill-opacity="1"
         fill-rule="nonzero"
         id="path62"
         style="fill:#000000;fill-opacity:1;stroke:#000000;stroke-opacity:1" />
    </g>
  </g>
  <g
     clip-path="url(#869e6c9c97)"
     id="g66"
     style="fill:#000000;fill-opacity:1;stroke:#000000;stroke-opacity:1"
     transform="translate(-59.285155,-165.35491)">
    <g
       clip-path="url(#eaf98d8ff2)"
       id="g65"
       style="fill:#000000;fill-opacity:1;stroke:#000000;stroke-opacity:1">
      <path
         fill="#ffffff"
         d="m 68.726562,193.95703 h 18.886719 v 7.64063 H 68.726562 Z m 0,0"
         fill-opacity="1"
         fill-rule="nonzero"
         id="path64"
         style="fill:#000000;fill-opacity:1;stroke:#000000;stroke-opacity:1" />
    </g>
  </g>
  <g
     clip-path="url(#ea47d84ed9)"
     id="g68"
     style="fill:#000000;fill-opacity:1;stroke:#000000;stroke-opacity:1"
     transform="translate(-59.285155,-165.35491)">
    <g
       clip-path="url(#ae57394d9c)"
       id="g67"
       style="fill:#000000;fill-opacity:1;stroke:#000000;stroke-opacity:1">
      <path
         fill="#ffffff"
         d="m 59.285156,185.12109 h 18.886719 v 7.63672 H 59.285156 Z m 0,0"
         fill-opacity="1"
         fill-rule="nonzero"
         id="path66"
         style="fill:#000000;fill-opacity:1;stroke:#000000;stroke-opacity:1" />
    </g>
  </g>
  <g
     clip-path="url(#e268e1a6c4)"
     id="g70"
     style="fill:#000000;fill-opacity:1;stroke:#000000;stroke-opacity:1"
     transform="translate(-59.285155,-165.35491)">
    <g
       clip-path="url(#dd7a6478ca)"
       id="g69"
       style="fill:#000000;fill-opacity:1;stroke:#000000;stroke-opacity:1">
      <path
         fill="#ffffff"
         d="m 68.726562,176.25391 h 18.886719 v 7.63671 H 68.726562 Z m 0,0"
         fill-opacity="1"
         fill-rule="nonzero"
         id="path68"
         style="fill:#000000;fill-opacity:1;stroke:#000000;stroke-opacity:1" />
    </g>
  </g>
</svg>
