<svg xmlns="http://www.w3.org/2000/svg" width="253.537" height="45.797" preserveAspectRatio="xMidYMid" version="1.0"><defs><clipPath id="a"><path d="M98 165h21v12H98Zm0 0" class="flicker"/></clipPath><clipPath id="b"><path d="m100.008 165.379 18.781 3.047-1.273 7.832-18.782-3.051zm0 0" class="flicker"/></clipPath><clipPath id="c"><path d="m101.488 165.617 15.79 2.563a1.496 1.496 0 0 1 1.238 1.723l-.79 4.867a1.5 1.5 0 0 1-.601.976 1.5 1.5 0 0 1-1.121.266l-15.79-2.563a1.52 1.52 0 0 1-.976-.605 1.5 1.5 0 0 1-.261-1.117l.789-4.868c.062-.394.28-.746.605-.976.32-.235.723-.328 1.117-.266m0 0" class="flicker"/></clipPath><clipPath id="d"><path d="M88.36 176.117h18.886v7.64H88.36Zm0 0" class="flicker"/></clipPath><clipPath id="e"><path d="M89.86 176.117h15.882a1.503 1.503 0 0 1 1.5 1.5v4.64a1.503 1.503 0 0 1-1.5 1.5H89.86a1.5 1.5 0 0 1-1.5-1.5v-4.64a1.505 1.505 0 0 1 1.5-1.5m0 0" class="flicker"/></clipPath><clipPath id="f"><path d="M98.824 185.082h18.887v7.637H98.824Zm0 0" class="flicker"/></clipPath><clipPath id="g"><path d="M100.324 185.082h15.883a1.505 1.505 0 0 1 1.5 1.5v4.637c0 .398-.16.781-.441 1.062s-.66.438-1.059.438h-15.883c-.398 0-.781-.156-1.062-.438a1.5 1.5 0 0 1-.438-1.062v-4.637c0-.398.156-.781.438-1.062a1.5 1.5 0 0 1 1.062-.438m0 0" class="flicker"/></clipPath><clipPath id="h"><path d="M88.36 194.047h18.886v7.637H88.36Zm0 0" class="flicker"/></clipPath><clipPath id="i"><path d="M89.86 194.047h15.882a1.5 1.5 0 0 1 1.5 1.5v4.637a1.5 1.5 0 0 1-1.5 1.5H89.86c-.398 0-.78-.157-1.062-.438a1.5 1.5 0 0 1-.438-1.062v-4.637c0-.399.157-.781.438-1.063a1.5 1.5 0 0 1 1.062-.437m0 0" class="flicker"/></clipPath><clipPath id="j"><path d="M78.918 184.906h18.887v7.64H78.918Zm0 0" class="flicker0"/></clipPath><clipPath id="k"><path d="M80.418 184.906h15.883a1.503 1.503 0 0 1 1.5 1.5v4.64a1.503 1.503 0 0 1-1.5 1.5H80.418a1.5 1.5 0 0 1-1.5-1.5v-4.64c0-.398.156-.777.437-1.058a1.5 1.5 0 0 1 1.063-.442m0 0" class="flicker1"/></clipPath><clipPath id="l"><path d="M98.824 203.008h18.887v7.64H98.824Zm0 0" class="flicker2"/></clipPath><clipPath id="m"><path d="M100.324 203.008h15.883a1.503 1.503 0 0 1 1.5 1.5v4.64c0 .399-.16.778-.441 1.059s-.66.441-1.059.441h-15.883c-.398 0-.781-.16-1.062-.441a1.5 1.5 0 0 1-.438-1.059v-4.64a1.5 1.5 0 0 1 1.5-1.5m0 0" class="flicker3"/></clipPath><clipPath id="n"><path d="M78.918 203.008h18.887v7.64H78.918Zm0 0" class="flicker4"/></clipPath><clipPath id="o"><path d="M80.418 203.008h15.883a1.503 1.503 0 0 1 1.5 1.5v4.64c0 .399-.16.778-.442 1.059a1.5 1.5 0 0 1-1.058.441H80.418c-.398 0-.781-.16-1.063-.441a1.5 1.5 0 0 1-.437-1.059v-4.64a1.5 1.5 0 0 1 1.5-1.5m0 0" class="flicker5"/></clipPath><clipPath id="p"><path d="M59.285 203.008h18.887v7.64H59.285Zm0 0" class="flicker6"/></clipPath><clipPath id="q"><path d="M60.785 203.008h15.883a1.503 1.503 0 0 1 1.5 1.5v4.64a1.503 1.503 0 0 1-1.5 1.5H60.785c-.398 0-.781-.16-1.062-.441a1.5 1.5 0 0 1-.438-1.059v-4.64a1.5 1.5 0 0 1 1.5-1.5m0 0" class="flicker7"/></clipPath><clipPath id="r"><path d="M68.727 193.957h18.886v7.64H68.727Zm0 0" class="flicker8"/></clipPath><clipPath id="s"><path d="M70.227 193.957h15.882a1.503 1.503 0 0 1 1.5 1.5v4.64a1.503 1.503 0 0 1-1.5 1.5H70.227c-.399 0-.782-.16-1.063-.44a1.5 1.5 0 0 1-.437-1.06v-4.64c0-.398.156-.777.437-1.059a1.5 1.5 0 0 1 1.063-.441m0 0" class="flicker9"/></clipPath><clipPath id="t"><path d="M59.285 185.121h18.887v7.637H59.285Zm0 0" class="flicker0"/></clipPath><clipPath id="u"><path d="M60.785 185.121h15.883a1.5 1.5 0 0 1 1.5 1.5v4.637a1.5 1.5 0 0 1-1.5 1.5H60.785c-.398 0-.781-.156-1.062-.438a1.5 1.5 0 0 1-.438-1.062v-4.637c0-.398.156-.781.438-1.062a1.5 1.5 0 0 1 1.062-.438m0 0" class="flicker1"/></clipPath><clipPath id="v"><path d="M68.727 176.254h18.886v7.637H68.727Zm0 0" class="flicker2"/></clipPath><clipPath id="w"><path d="M70.227 176.254h15.882a1.5 1.5 0 0 1 1.5 1.5v4.637a1.5 1.5 0 0 1-1.5 1.5H70.227c-.399 0-.782-.157-1.063-.438a1.5 1.5 0 0 1-.437-1.062v-4.637c0-.399.156-.781.437-1.063a1.5 1.5 0 0 1 1.063-.437m0 0" class="flicker3"/></clipPath></defs><g clip-path="url(#a)" style="fill:#000;fill-opacity:1;stroke:#000;stroke-opacity:1" transform="translate(-59.285 -165.355)"><g clip-path="url(#b)" style="fill:#000;fill-opacity:1;stroke:#000;stroke-opacity:1"><g clip-path="url(#c)" style="fill:#000;fill-opacity:1;stroke:#000;stroke-opacity:1"><path fill="#fff" d="m100.008 165.379 18.75 3.043-1.274 7.828-18.75-3.043zm0 0" class="flicker4" style="fill:#000;fill-opacity:1;stroke:#000;stroke-opacity:1"/></g></g></g><path fill="#fff" d="m-.875 9.406 5.75-34.5h6.86l-.688 4.219h.297q.608-1.03 1.656-2.078 1.061-1.044 2.61-1.75 1.544-.717 3.64-.719 2.75 0 4.813 1.438 2.074 1.424 2.984 4.297.919 2.859.203 7.171-.691 4.206-2.531 7.094-1.83 2.877-4.39 4.36Q17.761.407 14.921.406q-2.034-.002-3.328-.672-1.284-.667-2.016-1.687a7 7 0 0 1-1.031-2.063h-.25L6.078 9.406ZM9.594-12.547c-.367 2.23-.203 4.027.484 5.39q1.043 2.033 3.563 2.032 2.575 0 4.25-2.062 1.67-2.076 2.25-5.36.528-3.263-.485-5.297c-.668-1.351-1.86-2.031-3.578-2.031-1.68 0-3.09.664-4.234 1.984q-1.724 1.987-2.25 5.344zm0 0" class="flicker5" style="fill:#000;fill-opacity:1;stroke:#000;stroke-opacity:1" transform="translate(69.45 35.89)"/><path fill="#fff" d="m.688 0 4.187-25.094h6.734l-.734 4.375h.266q1.076-2.324 2.875-3.531a7 7 0 0 1 3.953-1.203q1.998 0 3.234.922l-3 5.718a6 6 0 0 0-1.031-.39 4.4 4.4 0 0 0-1.281-.172q-2.098 0-3.797 1.438-1.687 1.439-2.11 3.734L7.641 0Zm0 0" class="flicker6" style="fill:#000;fill-opacity:1;stroke:#000;stroke-opacity:1" transform="translate(95.872 35.89)"/><path fill="#fff" d="M12.063.484q-3.845 0-6.36-1.64C4.035-2.25 2.86-3.773 2.172-5.734q-1.02-2.937-.375-6.828.62-3.855 2.578-6.75 1.969-2.889 4.984-4.5c2.008-1.07 4.282-1.61 6.813-1.61q3.825 0 6.344 1.64 2.512 1.642 3.53 4.595 1.014 2.94.392 6.843-.626 3.831-2.594 6.719-1.971 2.895-4.985 4.5-3.017 1.61-6.797 1.61zm.703-5.39q2.625.002 4.359-2.188 1.746-2.184 2.297-5.5.526-3.247-.422-5.375-.954-2.14-3.531-2.14-2.644 0-4.39 2.203-1.737 2.202-2.267 5.531-.532 3.236.422 5.36c.633 1.406 1.813 2.109 3.532 2.109zm0 0" class="flicker7" style="fill:#000;fill-opacity:1;stroke:#000;stroke-opacity:1" transform="translate(112.918 35.89)"/><path fill="#fff" d="m-.875 9.406 5.75-34.5h6.86l-.688 4.219h.297q.608-1.03 1.656-2.078 1.061-1.044 2.61-1.75 1.544-.717 3.64-.719 2.75 0 4.813 1.438 2.074 1.424 2.984 4.297.919 2.859.203 7.171-.691 4.206-2.531 7.094-1.83 2.877-4.39 4.36Q17.761.407 14.921.406q-2.034-.002-3.328-.672-1.284-.667-2.016-1.687a7 7 0 0 1-1.031-2.063h-.25L6.078 9.406ZM9.594-12.547c-.367 2.23-.203 4.027.484 5.39q1.043 2.033 3.563 2.032 2.575 0 4.25-2.062 1.67-2.076 2.25-5.36.528-3.263-.485-5.297c-.668-1.351-1.86-2.031-3.578-2.031-1.68 0-3.09.664-4.234 1.984q-1.724 1.987-2.25 5.344zm0 0" class="flicker8" style="fill:#000;fill-opacity:1;stroke:#000;stroke-opacity:1" transform="translate(138.475 35.89)"/><path fill="#fff" d="m18.219-25.094-.875 5.235h-4.735L10.58-7.703q-.236 1.44.343 1.937c.383.336.926.5 1.625.5.32 0 .648-.023.984-.078q.514-.094.781-.14l.266 5.172q-.596.188-1.578.406-.986.215-2.328.25-3.845.142-5.844-1.656Q2.843-3.125 3.5-6.797l2.156-13.062H2.22l.89-5.235h3.407l1-6.015h6.953l-.985 6.015zm0 0" class="flicker9" style="fill:#000;fill-opacity:1;stroke:#000;stroke-opacity:1" transform="translate(164.898 35.89)"/><path fill="#fff" d="m.688 0 4.187-25.094h6.953L7.641 0Zm8.359-28.36c-1.031 0-1.883-.347-2.547-1.046-.656-.696-.93-1.524-.812-2.485q.187-1.45 1.406-2.468 1.218-1.032 2.765-1.032t2.532 1.032q.983 1.018.828 2.468-.16 1.442-1.39 2.485-1.221 1.048-2.782 1.047zm0 0" class="flicker0" style="fill:#000;fill-opacity:1;stroke:#000;stroke-opacity:1" transform="translate(180.099 35.89)"/><path fill="#fff" d="M34.266-16.266q-.893 5.362-3.532 9.094-2.626 3.737-6.39 5.688Q20.576.454 16.234.453q-4.547 0-7.859-2.062-3.301-2.075-4.766-6c-.968-2.625-1.148-5.79-.53-9.5q.873-5.373 3.5-9.11 2.636-3.75 6.421-5.718 3.797-1.97 8.156-1.97c3.032 0 5.633.7 7.813 2.094q3.28 2.082 4.75 6.032 1.465 3.938.547 9.515zm-7.032-.843c.563-3.438.258-6.051-.906-7.844q-1.75-2.701-5.453-2.703-4.032.001-6.969 2.984-2.923 2.97-3.812 8.406c-.594 3.45-.29 6.059.922 7.828q1.81 2.642 5.484 2.641c2.664 0 4.969-.973 6.906-2.922q2.92-2.936 3.828-8.39zm0 0" class="flicker1" style="fill:#000;fill-opacity:1;stroke:#000;stroke-opacity:1" transform="translate(189.942 35.89)"/><path fill="#fff" d="M22.89-23.734q.076-2.044-1.203-3.157-1.265-1.108-3.796-1.109-2.597 0-4.157 1.063-1.546 1.049-1.828 2.671-.363 1.784 1.078 2.735 1.453.939 3.532 1.422l2.875.718q2.793.658 4.843 1.907 2.063 1.236 3.047 3.187c.657 1.305.82 2.883.5 4.735q-.767 4.594-4.625 7.312-3.86 2.72-10 2.719-6.063 0-9.25-2.781Q.718-5.092 1.484-10.5h6.844Q8.06-7.982 9.672-6.719c1.07.844 2.531 1.266 4.375 1.266 1.82 0 3.328-.379 4.515-1.14q1.796-1.156 2.079-2.985.292-1.671-1.032-2.61-1.328-.936-3.953-1.562l-3.5-.922Q8.124-15.7 6.031-17.89q-2.08-2.201-1.484-5.89.515-3.06 2.531-5.328 2.014-2.264 5.094-3.532 3.075-1.265 6.75-1.265c2.476 0 4.57.43 6.281 1.281q2.561 1.283 3.735 3.563c.789 1.523 1.035 3.296.734 5.328zm0 0" class="flicker2" style="fill:#000;fill-opacity:1;stroke:#000;stroke-opacity:1" transform="translate(223.241 35.89)"/><g clip-path="url(#d)" style="fill:#000;fill-opacity:1;stroke:#000;stroke-opacity:1" transform="translate(-59.285 -165.355)"><g clip-path="url(#e)" style="fill:#000;fill-opacity:1;stroke:#000;stroke-opacity:1"><path fill="#fff" d="M88.36 176.117h18.886v7.64H88.36Zm0 0" class="flicker3" style="fill:#000;fill-opacity:1;stroke:#000;stroke-opacity:1"/></g></g><g clip-path="url(#f)" style="fill:#000;fill-opacity:1;stroke:#000;stroke-opacity:1" transform="translate(-59.285 -165.355)"><g clip-path="url(#g)" style="fill:#000;fill-opacity:1;stroke:#000;stroke-opacity:1"><path fill="#fff" d="M98.824 185.082h18.887v7.637H98.824Zm0 0" class="flicker4" style="fill:#000;fill-opacity:1;stroke:#000;stroke-opacity:1"/></g></g><g clip-path="url(#h)" style="fill:#000;fill-opacity:1;stroke:#000;stroke-opacity:1" transform="translate(-59.285 -165.355)"><g clip-path="url(#i)" style="fill:#000;fill-opacity:1;stroke:#000;stroke-opacity:1"><path fill="#fff" d="M88.36 194.047h18.886v7.637H88.36Zm0 0" class="flicker5" style="fill:#000;fill-opacity:1;stroke:#000;stroke-opacity:1"/></g></g><g clip-path="url(#j)" style="fill:#000;fill-opacity:1;stroke:#000;stroke-opacity:1" transform="translate(-59.285 -165.355)"><g clip-path="url(#k)" style="fill:#000;fill-opacity:1;stroke:#000;stroke-opacity:1"><path fill="#fff" d="M78.918 184.906h18.887v7.64H78.918Zm0 0" class="flicker6" style="fill:#000;fill-opacity:1;stroke:#000;stroke-opacity:1"/></g></g><g clip-path="url(#l)" style="fill:#000;fill-opacity:1;stroke:#000;stroke-opacity:1" transform="translate(-59.285 -165.355)"><g clip-path="url(#m)" style="fill:#000;fill-opacity:1;stroke:#000;stroke-opacity:1"><path fill="#fff" d="M98.824 203.008h18.887v7.64H98.824Zm0 0" class="flicker7" style="fill:#000;fill-opacity:1;stroke:#000;stroke-opacity:1"/></g></g><g clip-path="url(#n)" style="fill:#000;fill-opacity:1;stroke:#000;stroke-opacity:1" transform="translate(-59.285 -165.355)"><g clip-path="url(#o)" style="fill:#000;fill-opacity:1;stroke:#000;stroke-opacity:1"><path fill="#fff" d="M78.918 203.008h18.887v7.64H78.918Zm0 0" class="flicker8" style="fill:#000;fill-opacity:1;stroke:#000;stroke-opacity:1"/></g></g><g clip-path="url(#p)" style="fill:#000;fill-opacity:1;stroke:#000;stroke-opacity:1" transform="translate(-59.285 -165.355)"><g clip-path="url(#q)" style="fill:#000;fill-opacity:1;stroke:#000;stroke-opacity:1"><path fill="#fff" d="M59.285 203.008h18.887v7.64H59.285Zm0 0" class="flicker9" style="fill:#000;fill-opacity:1;stroke:#000;stroke-opacity:1"/></g></g><g clip-path="url(#r)" style="fill:#000;fill-opacity:1;stroke:#000;stroke-opacity:1" transform="translate(-59.285 -165.355)"><g clip-path="url(#s)" style="fill:#000;fill-opacity:1;stroke:#000;stroke-opacity:1"><path fill="#fff" d="M68.727 193.957h18.886v7.64H68.727Zm0 0" class="flicker0" style="fill:#000;fill-opacity:1;stroke:#000;stroke-opacity:1"/></g></g><g clip-path="url(#t)" style="fill:#000;fill-opacity:1;stroke:#000;stroke-opacity:1" transform="translate(-59.285 -165.355)"><g clip-path="url(#u)" style="fill:#000;fill-opacity:1;stroke:#000;stroke-opacity:1"><path fill="#fff" d="M59.285 185.121h18.887v7.637H59.285Zm0 0" class="flicker1" style="fill:#000;fill-opacity:1;stroke:#000;stroke-opacity:1"/></g></g><g clip-path="url(#v)" style="fill:#000;fill-opacity:1;stroke:#000;stroke-opacity:1" transform="translate(-59.285 -165.355)"><g clip-path="url(#w)" style="fill:#000;fill-opacity:1;stroke:#000;stroke-opacity:1"><path fill="#fff" d="M68.727 176.254h18.886v7.637H68.727Zm0 0" class="flicker2" style="fill:#000;fill-opacity:1;stroke:#000;stroke-opacity:1"/></g></g></svg>
