<svg xmlns="http://www.w3.org/2000/svg" width="253.037" height="45.053" preserveAspectRatio="xMidYMid" version="1.0"><defs><clipPath id="a"><path d="M98 165h21v12H98Zm0 0" class="flicker-dark"/></clipPath><clipPath id="b"><path d="m100.008 165.379 18.781 3.047-1.273 7.832-18.782-3.051zm0 0" class="flicker-dark"/></clipPath><clipPath id="c"><path d="m101.488 165.617 15.79 2.563a1.496 1.496 0 0 1 1.238 1.723l-.79 4.867a1.5 1.5 0 0 1-.601.976 1.5 1.5 0 0 1-1.121.266l-15.79-2.563a1.52 1.52 0 0 1-.976-.605 1.5 1.5 0 0 1-.261-1.117l.789-4.868c.062-.394.28-.746.605-.976.32-.235.723-.328 1.117-.266m0 0" class="flicker-dark"/></clipPath><clipPath id="d"><path d="M88.36 176.117h18.886v7.64H88.36Zm0 0" class="flicker-dark"/></clipPath><clipPath id="e"><path d="M89.86 176.117h15.882a1.503 1.503 0 0 1 1.5 1.5v4.64a1.503 1.503 0 0 1-1.5 1.5H89.86a1.5 1.5 0 0 1-1.5-1.5v-4.64a1.505 1.505 0 0 1 1.5-1.5m0 0" class="flicker-dark"/></clipPath><clipPath id="f"><path d="M98.824 185.082h18.887v7.637H98.824Zm0 0" class="flicker-dark"/></clipPath><clipPath id="g"><path d="M100.324 185.082h15.883a1.505 1.505 0 0 1 1.5 1.5v4.637c0 .398-.16.781-.441 1.062s-.66.438-1.059.438h-15.883c-.398 0-.781-.156-1.062-.438a1.5 1.5 0 0 1-.438-1.062v-4.637c0-.398.156-.781.438-1.062a1.5 1.5 0 0 1 1.062-.438m0 0" class="flicker-dark"/></clipPath><clipPath id="h"><path d="M88.36 194.047h18.886v7.637H88.36Zm0 0" class="flicker-dark"/></clipPath><clipPath id="i"><path d="M89.86 194.047h15.882a1.5 1.5 0 0 1 1.5 1.5v4.637a1.5 1.5 0 0 1-1.5 1.5H89.86c-.398 0-.78-.157-1.062-.438a1.5 1.5 0 0 1-.438-1.062v-4.637c0-.399.157-.781.438-1.063a1.5 1.5 0 0 1 1.062-.437m0 0" class="flicker-dark"/></clipPath><clipPath id="j"><path d="M78.918 184.906h18.887v7.64H78.918Zm0 0" class="flicker-dark"/></clipPath><clipPath id="k"><path d="M80.418 184.906h15.883a1.503 1.503 0 0 1 1.5 1.5v4.64a1.503 1.503 0 0 1-1.5 1.5H80.418a1.5 1.5 0 0 1-1.5-1.5v-4.64c0-.398.156-.777.437-1.058a1.5 1.5 0 0 1 1.063-.442m0 0" class="flicker-dark"/></clipPath><clipPath id="l"><path d="M98.824 203.008h18.887v7.64H98.824Zm0 0" class="flicker-dark"/></clipPath><clipPath id="m"><path d="M100.324 203.008h15.883a1.503 1.503 0 0 1 1.5 1.5v4.64c0 .399-.16.778-.441 1.059s-.66.441-1.059.441h-15.883c-.398 0-.781-.16-1.062-.441a1.5 1.5 0 0 1-.438-1.059v-4.64a1.5 1.5 0 0 1 1.5-1.5m0 0" class="flicker-dark"/></clipPath><clipPath id="n"><path d="M78.918 203.008h18.887v7.64H78.918Zm0 0" class="flicker-dark"/></clipPath><clipPath id="o"><path d="M80.418 203.008h15.883a1.503 1.503 0 0 1 1.5 1.5v4.64c0 .399-.16.778-.442 1.059a1.5 1.5 0 0 1-1.058.441H80.418c-.398 0-.781-.16-1.063-.441a1.5 1.5 0 0 1-.437-1.059v-4.64a1.5 1.5 0 0 1 1.5-1.5m0 0" class="flicker-dark"/></clipPath><clipPath id="p"><path d="M59.285 203.008h18.887v7.64H59.285Zm0 0" class="flicker-dark"/></clipPath><clipPath id="q"><path d="M60.785 203.008h15.883a1.503 1.503 0 0 1 1.5 1.5v4.64a1.503 1.503 0 0 1-1.5 1.5H60.785c-.398 0-.781-.16-1.062-.441a1.5 1.5 0 0 1-.438-1.059v-4.64a1.5 1.5 0 0 1 1.5-1.5m0 0" class="flicker-dark"/></clipPath><clipPath id="r"><path d="M68.727 193.957h18.886v7.64H68.727Zm0 0" class="flicker-dark"/></clipPath><clipPath id="s"><path d="M70.227 193.957h15.882a1.503 1.503 0 0 1 1.5 1.5v4.64a1.503 1.503 0 0 1-1.5 1.5H70.227c-.399 0-.782-.16-1.063-.44a1.5 1.5 0 0 1-.437-1.06v-4.64c0-.398.156-.777.437-1.059a1.5 1.5 0 0 1 1.063-.441m0 0" class="flicker-dark"/></clipPath><clipPath id="t"><path d="M59.285 185.121h18.887v7.637H59.285Zm0 0" class="flicker-dark"/></clipPath><clipPath id="u"><path d="M60.785 185.121h15.883a1.5 1.5 0 0 1 1.5 1.5v4.637a1.5 1.5 0 0 1-1.5 1.5H60.785c-.398 0-.781-.156-1.062-.438a1.5 1.5 0 0 1-.438-1.062v-4.637c0-.398.156-.781.438-1.062a1.5 1.5 0 0 1 1.062-.438m0 0" class="flicker-dark"/></clipPath><clipPath id="v"><path d="M68.727 176.254h18.886v7.637H68.727Zm0 0" class="flicker-dark"/></clipPath><clipPath id="w"><path d="M70.227 176.254h15.882a1.5 1.5 0 0 1 1.5 1.5v4.637a1.5 1.5 0 0 1-1.5 1.5H70.227c-.399 0-.782-.157-1.063-.438a1.5 1.5 0 0 1-.437-1.062v-4.637c0-.399.156-.781.437-1.063a1.5 1.5 0 0 1 1.063-.437m0 0" class="flicker-dark"/></clipPath></defs><g clip-path="url(#a)" transform="translate(-59.285 -165.598)"><g clip-path="url(#b)"><g clip-path="url(#c)"><path fill="#fff" d="m100.008 165.379 18.75 3.043-1.274 7.828-18.75-3.043zm0 0" class="flicker-dark"/></g></g></g><path fill="#fff" d="m68.574 45.053 5.75-34.5h6.86l-.688 4.22h.297q.608-1.031 1.656-2.079c.707-.695 1.578-1.281 2.61-1.75 1.03-.476 2.242-.719 3.64-.719q2.75 0 4.813 1.438 2.075 1.425 2.984 4.297.919 2.86.203 7.172-.691 4.206-2.531 7.093-1.83 2.877-4.39 4.36-2.566 1.469-5.407 1.468-2.033-.002-3.328-.671-1.283-.668-2.016-1.688a7 7 0 0 1-1.031-2.062h-.25l-2.219 13.421ZM79.043 23.1q-.549 3.346.484 5.391 1.043 2.032 3.563 2.031 2.576 0 4.25-2.062 1.67-2.076 2.25-5.36.528-3.263-.485-5.297-1-2.028-3.578-2.03-2.519.001-4.234 1.984-1.724 1.986-2.25 5.343M96.56 35.647l4.187-25.094h6.734l-.734 4.375h.265q1.077-2.325 2.875-3.53a7 7 0 0 1 3.953-1.204q1.998.001 3.235.922l-3 5.719a6 6 0 0 0-1.032-.39 4.4 4.4 0 0 0-1.28-.173q-2.1 0-3.798 1.438-1.687 1.439-2.109 3.734l-2.344 14.203ZM124.98 36.132q-3.844 0-6.358-1.641c-1.668-1.094-2.844-2.617-3.532-4.578q-1.02-2.937-.375-6.828.621-3.855 2.578-6.75 1.968-2.889 4.985-4.5c2.008-1.07 4.281-1.61 6.812-1.61q3.825 0 6.344 1.641 2.513 1.64 3.531 4.594 1.013 2.94.39 6.843-.625 3.831-2.593 6.72-1.97 2.894-4.984 4.5-3.018 1.61-6.797 1.609m.704-5.391q2.625.002 4.36-2.188 1.746-2.185 2.296-5.5.528-3.247-.422-5.375-.953-2.139-3.53-2.14-2.645 0-4.391 2.203c-1.157 1.469-1.915 3.312-2.266 5.531-.356 2.156-.215 3.946.422 5.36q.951 2.109 3.531 2.109M137.6 45.053l5.75-34.5h6.86l-.688 4.22h.297q.608-1.031 1.656-2.079c.707-.695 1.578-1.281 2.61-1.75 1.03-.476 2.242-.719 3.64-.719q2.75 0 4.813 1.438 2.075 1.425 2.984 4.297.919 2.86.203 7.172-.691 4.206-2.531 7.093-1.83 2.877-4.39 4.36-2.566 1.469-5.407 1.468-2.033-.002-3.328-.671-1.283-.668-2.016-1.688a7 7 0 0 1-1.031-2.062h-.25l-2.219 13.421ZM148.07 23.1q-.548 3.346.484 5.391 1.044 2.032 3.563 2.031 2.577 0 4.25-2.062 1.67-2.076 2.25-5.36.528-3.263-.485-5.297-1-2.028-3.578-2.03-2.519.001-4.234 1.984-1.723 1.986-2.25 5.343M183.116 10.553l-.875 5.235h-4.734l-2.031 12.156q-.236 1.44.343 1.938.576.502 1.625.5.48.002.985-.079c.344-.062.601-.109.781-.14l.266 5.172c-.399.125-.922.261-1.578.406q-.986.216-2.329.25-3.844.142-5.843-1.656-1.986-1.81-1.328-5.485l2.156-13.062h-3.438l.89-5.235h3.407l1-6.015h6.953l-.984 6.015zM180.786 35.647l4.188-25.094h6.953l-4.188 25.094Zm8.36-28.36q-1.55.001-2.547-1.046-.987-1.043-.813-2.484c.125-.97.594-1.79 1.406-2.47q1.22-1.03 2.766-1.03t2.531 1.03c.657.68.93 1.5.828 2.47q-.159 1.44-1.39 2.484-1.221 1.048-2.781 1.047M224.208 19.382q-.892 5.361-3.531 9.093c-1.75 2.493-3.883 4.387-6.39 5.688q-3.77 1.938-8.11 1.937-4.549 0-7.86-2.062-3.3-2.075-4.765-6c-.969-2.625-1.149-5.79-.532-9.5q.875-5.372 3.5-9.11 2.637-3.75 6.422-5.718 3.797-1.97 8.157-1.969 4.543.002 7.812 2.094 3.281 2.08 4.75 6.031 1.466 3.938.547 9.516m-7.031-.844q.842-5.155-.907-7.844-1.75-2.702-5.453-2.703-4.031.001-6.968 2.984-2.924 2.97-3.813 8.407-.893 5.173.922 7.828 1.81 2.64 5.484 2.64c2.664 0 4.97-.972 6.907-2.922q2.918-2.935 3.828-8.39M246.132 11.913q.074-2.044-1.203-3.156-1.266-1.11-3.797-1.11-2.596.001-4.156 1.063-1.548 1.049-1.828 2.672-.364 1.782 1.078 2.734c.968.625 2.144 1.102 3.53 1.422l2.876.719q2.793.657 4.844 1.906 2.062 1.237 3.047 3.187c.656 1.305.82 2.883.5 4.735q-.769 4.594-4.625 7.312-3.861 2.72-10 2.719-6.063 0-9.25-2.781-3.189-2.779-2.422-8.188h6.843q-.269 2.518 1.344 3.781c1.07.844 2.531 1.266 4.375 1.266q2.732 0 4.516-1.14 1.794-1.156 2.078-2.985.292-1.67-1.031-2.61-1.33-.935-3.953-1.562l-3.5-.922c-2.688-.687-4.73-1.757-6.125-3.218-1.387-1.47-1.883-3.43-1.485-5.891q.516-3.06 2.531-5.328c1.344-1.508 3.04-2.688 5.094-3.531q3.075-1.266 6.75-1.266c2.477 0 4.57.43 6.281 1.281q2.562 1.284 3.735 3.563 1.185 2.283.734 5.328zm0 0" class="flicker-dark"/><g clip-path="url(#d)" transform="translate(-59.285 -165.598)"><g clip-path="url(#e)"><path fill="#fff" d="M88.36 176.117h18.886v7.64H88.36Zm0 0" class="flicker-dark"/></g></g><g clip-path="url(#f)" transform="translate(-59.285 -165.598)"><g clip-path="url(#g)"><path fill="#fff" d="M98.824 185.082h18.887v7.637H98.824Zm0 0" class="flicker-dark"/></g></g><g clip-path="url(#h)" transform="translate(-59.285 -165.598)"><g clip-path="url(#i)"><path fill="#fff" d="M88.36 194.047h18.886v7.637H88.36Zm0 0" class="flicker-dark"/></g></g><g clip-path="url(#j)" transform="translate(-59.285 -165.598)"><g clip-path="url(#k)"><path fill="#fff" d="M78.918 184.906h18.887v7.64H78.918Zm0 0" class="flicker-dark"/></g></g><g clip-path="url(#l)" transform="translate(-59.285 -165.598)"><g clip-path="url(#m)"><path fill="#fff" d="M98.824 203.008h18.887v7.64H98.824Zm0 0" class="flicker-dark"/></g></g><g clip-path="url(#n)" transform="translate(-59.285 -165.598)"><g clip-path="url(#o)"><path fill="#fff" d="M78.918 203.008h18.887v7.64H78.918Zm0 0" class="flicker-dark"/></g></g><g clip-path="url(#p)" transform="translate(-59.285 -165.598)"><g clip-path="url(#q)"><path fill="#fff" d="M59.285 203.008h18.887v7.64H59.285Zm0 0" class="flicker-dark"/></g></g><g clip-path="url(#r)" transform="translate(-59.285 -165.598)"><g clip-path="url(#s)"><path fill="#fff" d="M68.727 193.957h18.886v7.64H68.727Zm0 0" class="flicker-dark"/></g></g><g clip-path="url(#t)" transform="translate(-59.285 -165.598)"><g clip-path="url(#u)"><path fill="#fff" d="M59.285 185.121h18.887v7.637H59.285Zm0 0" class="flicker-dark"/></g></g><g clip-path="url(#v)" transform="translate(-59.285 -165.598)"><g clip-path="url(#w)"><path fill="#fff" d="M68.727 176.254h18.886v7.637H68.727Zm0 0" class="flicker-dark"/></g></g></svg>