<svg xmlns="http://www.w3.org/2000/svg" version="1.1" xmlns:xlink="http://www.w3.org/1999/xlink" xmlns:svgjs="http://svgjs.dev/svgjs" width="387.66269" height="295.0148"><svg width="387.66269" zoomAndPan="magnify" viewBox="0 0 290.74702 221.2611" height="295.0148" preserveAspectRatio="xMidYMid" version="1.0" id="SvgjsSvg1267" sodipodi:docname="Untitled design (1).svg" inkscape:export-filename="whitefg.png" inkscape:export-xdpi="96" inkscape:export-ydpi="96" xmlns:inkscape="http://www.inkscape.org/namespaces/inkscape" xmlns:sodipodi="http://sodipodi.sourceforge.net/DTD/sodipodi-0.dtd" xmlns="http://www.w3.org/2000/svg" xmlns:svg="http://www.w3.org/2000/svg">
  <sodipodi:namedview id="SvgjsSodipodi:namedview1266" pagecolor="#000000" bordercolor="#666666" borderopacity="1.0" inkscape:showpageshadow="2" inkscape:pageopacity="0.0" inkscape:pagecheckerboard="0" inkscape:deskcolor="#d1d1d1">
    <inkscape:page x="0" y="0" width="290.74701" height="221.26109" id="SvgjsInkscape:page1265" margin="0" bleed="0"></inkscape:page>
  </sodipodi:namedview>
  <defs id="SvgjsDefs1264">
    <clipPath id="SvgjsClipPath1263">
      <path d="m 235,76 h 98 v 54 h -98 z m 0,0" clip-rule="nonzero" id="SvgjsPath1262"></path>
    </clipPath>
    <clipPath id="SvgjsClipPath1261">
      <path d="m 241.24609,76.757812 91.88282,14.921876 -6.21875,38.308592 -91.88282,-14.91797 z m 0,0" clip-rule="nonzero" id="SvgjsPath1260"></path>
    </clipPath>
    <clipPath id="SvgjsClipPath1259">
      <path d="m 242.72656,77 88.77735,14.414062 c 0.39062,0.0625 0.74218,0.28125 0.97656,0.605469 0.23047,0.320313 0.32812,0.722657 0.26172,1.117188 l -5.73828,35.347651 c -0.0625,0.39063 -0.28125,0.74219 -0.60157,0.97657 -0.32422,0.23047 -0.72656,0.32812 -1.11718,0.26172 l -88.77735,-14.41407 c -0.39453,-0.0625 -0.74609,-0.28125 -0.97656,-0.60156 -0.23438,-0.32422 -0.32813,-0.72656 -0.26563,-1.11719 l 5.73829,-35.351559 c 0.0664,-0.390625 0.28125,-0.742187 0.60546,-0.976562 C 241.93359,77.03125 242.33203,76.9375 242.72656,77 Z m 0,0" clip-rule="nonzero" id="SvgjsPath1258"></path>
    </clipPath>
    <clipPath id="SvgjsClipPath1257">
      <path d="m 184.25391,129.30469 h 92.40625 v 37.37109 h -92.40625 z m 0,0" clip-rule="nonzero" id="SvgjsPath1256"></path>
    </clipPath>
    <clipPath id="SvgjsClipPath1255">
      <path d="m 185.75391,129.30469 h 89.3789 c 0.39844,0 0.78125,0.15625 1.0625,0.4375 0.28125,0.28125 0.4375,0.66406 0.4375,1.0625 v 34.37109 c 0,0.39844 -0.15625,0.77734 -0.4375,1.05859 -0.28125,0.28125 -0.66406,0.44141 -1.0625,0.44141 h -89.3789 c -0.39844,0 -0.78125,-0.16016 -1.0625,-0.44141 -0.28125,-0.28125 -0.4375,-0.66015 -0.4375,-1.05859 v -34.37109 c 0,-0.39844 0.15625,-0.78125 0.4375,-1.0625 0.28125,-0.28125 0.66406,-0.4375 1.0625,-0.4375 z m 0,0" clip-rule="nonzero" id="SvgjsPath1254"></path>
    </clipPath>
    <clipPath id="SvgjsClipPath1253">
      <path d="m 235.45703,173.16016 h 92.40625 v 37.37109 h -92.40625 z m 0,0" clip-rule="nonzero" id="SvgjsPath1252"></path>
    </clipPath>
    <clipPath id="SvgjsClipPath1251">
      <path d="m 236.95703,173.16016 h 89.37891 c 0.39843,0 0.78125,0.15625 1.0625,0.4375 0.28125,0.28125 0.4375,0.66406 0.4375,1.0625 v 34.37109 c 0,0.39844 -0.15625,0.77734 -0.4375,1.05859 -0.28125,0.28125 -0.66407,0.44141 -1.0625,0.44141 h -89.37891 c -0.39844,0 -0.77734,-0.16016 -1.0625,-0.44141 -0.28125,-0.28125 -0.4375,-0.66015 -0.4375,-1.05859 v -34.37109 c 0,-0.39844 0.15625,-0.78125 0.4375,-1.0625 0.28516,-0.28125 0.66406,-0.4375 1.0625,-0.4375 z m 0,0" clip-rule="nonzero" id="SvgjsPath1250"></path>
    </clipPath>
    <clipPath id="SvgjsClipPath1249">
      <path d="m 184.25391,217.01562 h 92.40625 v 37.3711 h -92.40625 z m 0,0" clip-rule="nonzero" id="SvgjsPath1248"></path>
    </clipPath>
    <clipPath id="SvgjsClipPath1247">
      <path d="m 185.75391,217.01562 h 89.3789 c 0.39844,0 0.78125,0.15625 1.0625,0.4375 0.28125,0.28125 0.4375,0.66407 0.4375,1.0625 v 34.3711 c 0,0.39844 -0.15625,0.77734 -0.4375,1.05859 -0.28125,0.28125 -0.66406,0.44141 -1.0625,0.44141 h -89.3789 c -0.39844,0 -0.78125,-0.16016 -1.0625,-0.44141 -0.28125,-0.28125 -0.4375,-0.66015 -0.4375,-1.05859 v -34.3711 c 0,-0.39843 0.15625,-0.78125 0.4375,-1.0625 0.28125,-0.28125 0.66406,-0.4375 1.0625,-0.4375 z m 0,0" clip-rule="nonzero" id="SvgjsPath1246"></path>
    </clipPath>
    <clipPath id="SvgjsClipPath1245">
      <path d="m 138.0625,172.30469 h 92.40625 v 37.37109 H 138.0625 Z m 0,0" clip-rule="nonzero" id="SvgjsPath1244"></path>
    </clipPath>
    <clipPath id="SvgjsClipPath1243">
      <path d="m 139.5625,172.30469 h 89.38281 c 0.39453,0 0.77735,0.16015 1.0586,0.4414 0.28125,0.28125 0.4414,0.66016 0.4414,1.0586 v 34.37109 c 0,0.39844 -0.16015,0.78125 -0.4414,1.0625 -0.28125,0.28125 -0.66407,0.4375 -1.0586,0.4375 H 139.5625 c -0.39453,0 -0.77734,-0.15625 -1.05859,-0.4375 -0.28125,-0.28125 -0.44141,-0.66406 -0.44141,-1.0625 v -34.37109 c 0,-0.39844 0.16016,-0.77735 0.44141,-1.0586 0.28125,-0.28125 0.66406,-0.4414 1.05859,-0.4414 z m 0,0" clip-rule="nonzero" id="SvgjsPath1242"></path>
    </clipPath>
    <clipPath id="SvgjsClipPath1241">
      <path d="m 235.45703,260.87109 h 92.40625 v 37.3711 h -92.40625 z m 0,0" clip-rule="nonzero" id="SvgjsPath1240"></path>
    </clipPath>
    <clipPath id="SvgjsClipPath1239">
      <path d="m 236.95703,260.87109 h 89.37891 c 0.39843,0 0.78125,0.15625 1.0625,0.4375 0.28125,0.28125 0.4375,0.66407 0.4375,1.0625 v 34.3711 c 0,0.39843 -0.15625,0.77734 -0.4375,1.05859 -0.28125,0.28125 -0.66407,0.44141 -1.0625,0.44141 h -89.37891 c -0.39844,0 -0.77734,-0.16016 -1.0625,-0.44141 -0.28125,-0.28125 -0.4375,-0.66016 -0.4375,-1.05859 v -34.3711 c 0,-0.39843 0.15625,-0.78125 0.4375,-1.0625 0.28516,-0.28125 0.66406,-0.4375 1.0625,-0.4375 z m 0,0" clip-rule="nonzero" id="SvgjsPath1238"></path>
    </clipPath>
    <clipPath id="SvgjsClipPath1237">
      <path d="m 138.0625,260.87109 h 92.40625 v 37.3711 H 138.0625 Z m 0,0" clip-rule="nonzero" id="SvgjsPath1236"></path>
    </clipPath>
    <clipPath id="SvgjsClipPath1235">
      <path d="m 139.5625,260.87109 h 89.38281 c 0.39453,0 0.77735,0.15625 1.0586,0.4375 0.28125,0.28125 0.4414,0.66407 0.4414,1.0625 v 34.3711 c 0,0.39843 -0.16015,0.77734 -0.4414,1.05859 -0.28125,0.28125 -0.66407,0.44141 -1.0586,0.44141 H 139.5625 c -0.39453,0 -0.77734,-0.16016 -1.05859,-0.44141 -0.28125,-0.28125 -0.44141,-0.66016 -0.44141,-1.05859 v -34.3711 c 0,-0.39843 0.16016,-0.78125 0.44141,-1.0625 0.28125,-0.28125 0.66406,-0.4375 1.05859,-0.4375 z m 0,0" clip-rule="nonzero" id="SvgjsPath1234"></path>
    </clipPath>
    <clipPath id="SvgjsClipPath1233">
      <path d="m 42.015625,260.87109 h 92.406245 v 37.3711 H 42.015625 Z m 0,0" clip-rule="nonzero" id="SvgjsPath1232"></path>
    </clipPath>
    <clipPath id="SvgjsClipPath1231">
      <path d="m 43.515625,260.87109 h 89.378905 c 0.39844,0 0.78125,0.15625 1.0625,0.4375 0.28125,0.28125 0.4375,0.66407 0.4375,1.0625 v 34.3711 c 0,0.39843 -0.15625,0.77734 -0.4375,1.05859 -0.28125,0.28125 -0.66406,0.44141 -1.0625,0.44141 H 43.515625 c -0.398437,0 -0.78125,-0.16016 -1.0625,-0.44141 -0.28125,-0.28125 -0.4375,-0.66016 -0.4375,-1.05859 v -34.3711 c 0,-0.39843 0.15625,-0.78125 0.4375,-1.0625 0.28125,-0.28125 0.664063,-0.4375 1.0625,-0.4375 z m 0,0" clip-rule="nonzero" id="SvgjsPath1230"></path>
    </clipPath>
    <clipPath id="SvgjsClipPath1229">
      <path d="m 88.203125,216.58984 h 92.406245 v 37.36719 H 88.203125 Z m 0,0" clip-rule="nonzero" id="SvgjsPath1228"></path>
    </clipPath>
    <clipPath id="SvgjsClipPath1227">
      <path d="m 89.703125,216.58984 h 89.382815 c 0.39453,0 0.77734,0.15625 1.05859,0.4375 0.28125,0.28125 0.44141,0.66407 0.44141,1.0625 v 34.36719 c 0,0.39844 -0.16016,0.78125 -0.44141,1.0625 -0.28125,0.28125 -0.66406,0.4375 -1.05859,0.4375 H 89.703125 c -0.394531,0 -0.777344,-0.15625 -1.058594,-0.4375 -0.28125,-0.28125 -0.441406,-0.66406 -0.441406,-1.0625 v -34.36719 c 0,-0.39843 0.160156,-0.78125 0.441406,-1.0625 0.28125,-0.28125 0.664063,-0.4375 1.058594,-0.4375 z m 0,0" clip-rule="nonzero" id="SvgjsPath1226"></path>
    </clipPath>
    <clipPath id="SvgjsClipPath1225">
      <path d="m 42.015625,173.35156 h 92.406245 v 37.3711 H 42.015625 Z m 0,0" clip-rule="nonzero" id="SvgjsPath1224"></path>
    </clipPath>
    <clipPath id="SvgjsClipPath1223">
      <path d="m 43.515625,173.35156 h 89.378905 c 0.39844,0 0.78125,0.15625 1.0625,0.4375 0.28125,0.28125 0.4375,0.66406 0.4375,1.0625 v 34.3711 c 0,0.39843 -0.15625,0.77734 -0.4375,1.05859 -0.28125,0.28125 -0.66406,0.44141 -1.0625,0.44141 H 43.515625 c -0.398437,0 -0.78125,-0.16016 -1.0625,-0.44141 -0.28125,-0.28125 -0.4375,-0.66016 -0.4375,-1.05859 v -34.3711 c 0,-0.39844 0.15625,-0.78125 0.4375,-1.0625 0.28125,-0.28125 0.664063,-0.4375 1.0625,-0.4375 z m 0,0" clip-rule="nonzero" id="SvgjsPath1222"></path>
    </clipPath>
    <clipPath id="SvgjsClipPath1221">
      <path d="m 88.203125,129.96484 h 92.406245 v 37.3711 H 88.203125 Z m 0,0" clip-rule="nonzero" id="SvgjsPath1220"></path>
    </clipPath>
    <clipPath id="SvgjsClipPath1219">
      <path d="m 89.703125,129.96484 h 89.382815 c 0.39453,0 0.77734,0.15625 1.05859,0.4375 0.28125,0.28125 0.44141,0.66407 0.44141,1.0625 v 34.3711 c 0,0.39453 -0.16016,0.77734 -0.44141,1.05859 -0.28125,0.28125 -0.66406,0.44141 -1.05859,0.44141 H 89.703125 c -0.394531,0 -0.777344,-0.16016 -1.058594,-0.44141 -0.28125,-0.28125 -0.441406,-0.66406 -0.441406,-1.05859 v -34.3711 c 0,-0.39843 0.160156,-0.78125 0.441406,-1.0625 0.28125,-0.28125 0.664063,-0.4375 1.058594,-0.4375 z m 0,0" clip-rule="nonzero" id="SvgjsPath1218"></path>
    </clipPath>
  </defs>
  <g clip-path="url(#d4b7b0321c)" id="SvgjsG1217" style="fill:#ffffff;fill-opacity:1" transform="translate(-42.015628,-76.981093)">
    <g clip-path="url(#79d71f1ffd)" id="SvgjsG1216" style="fill:#ffffff;fill-opacity:1">
      <g clip-path="url(#42e5cc60e6)" id="SvgjsG1215" style="fill:#ffffff;fill-opacity:1">
        <path fill="#000000" d="m 241.24609,76.757812 91.73438,14.894532 -6.22266,38.312496 -91.73047,-14.89453 z m 0,0" fill-opacity="1" fill-rule="nonzero" id="SvgjsPath1214" style="fill:#ffffff;fill-opacity:1"></path>
      </g>
    </g>
  </g>
  <g clip-path="url(#aff9534baa)" id="SvgjsG1213" style="fill:#ffffff;fill-opacity:1" transform="translate(-42.015628,-76.981093)">
    <g clip-path="url(#0f74b01180)" id="SvgjsG1212" style="fill:#ffffff;fill-opacity:1">
      <path fill="#000000" d="m 184.25391,129.30469 h 92.40625 v 37.37109 h -92.40625 z m 0,0" fill-opacity="1" fill-rule="nonzero" id="SvgjsPath1211" style="fill:#ffffff;fill-opacity:1"></path>
    </g>
  </g>
  <g clip-path="url(#f159841a23)" id="SvgjsG1210" style="fill:#ffffff;fill-opacity:1" transform="translate(-42.015628,-76.981093)">
    <g clip-path="url(#007455fd66)" id="SvgjsG1209" style="fill:#ffffff;fill-opacity:1">
      <path fill="#000000" d="m 235.45703,173.16016 h 92.40625 v 37.37109 h -92.40625 z m 0,0" fill-opacity="1" fill-rule="nonzero" id="SvgjsPath1208" style="fill:#ffffff;fill-opacity:1"></path>
    </g>
  </g>
  <g clip-path="url(#5fb995a96d)" id="SvgjsG1207" style="fill:#ffffff;fill-opacity:1" transform="translate(-42.015628,-76.981093)">
    <g clip-path="url(#d8a83be83a)" id="SvgjsG1206" style="fill:#ffffff;fill-opacity:1">
      <path fill="#000000" d="m 184.25391,217.01562 h 92.40625 v 37.3711 h -92.40625 z m 0,0" fill-opacity="1" fill-rule="nonzero" id="SvgjsPath1205" style="fill:#ffffff;fill-opacity:1"></path>
    </g>
  </g>
  <g clip-path="url(#7d1bc78088)" id="SvgjsG1204" style="fill:#ffffff;fill-opacity:1" transform="translate(-42.015628,-76.981093)">
    <g clip-path="url(#b2ead3e195)" id="SvgjsG1203" style="fill:#ffffff;fill-opacity:1">
      <path fill="#000000" d="m 138.0625,172.30469 h 92.40625 v 37.37109 H 138.0625 Z m 0,0" fill-opacity="1" fill-rule="nonzero" id="SvgjsPath1202" style="fill:#ffffff;fill-opacity:1"></path>
    </g>
  </g>
  <g clip-path="url(#0844bc884e)" id="SvgjsG1201" style="fill:#ffffff;fill-opacity:1" transform="translate(-42.015628,-76.981093)">
    <g clip-path="url(#bcae71f12e)" id="SvgjsG1200" style="fill:#ffffff;fill-opacity:1">
      <path fill="#000000" d="m 235.45703,260.87109 h 92.40625 v 37.3711 h -92.40625 z m 0,0" fill-opacity="1" fill-rule="nonzero" id="SvgjsPath1199" style="fill:#ffffff;fill-opacity:1"></path>
    </g>
  </g>
  <g clip-path="url(#1141efa525)" id="SvgjsG1198" style="fill:#ffffff;fill-opacity:1" transform="translate(-42.015628,-76.981093)">
    <g clip-path="url(#1cca6825bc)" id="SvgjsG1197" style="fill:#ffffff;fill-opacity:1">
      <path fill="#000000" d="m 138.0625,260.87109 h 92.40625 v 37.3711 H 138.0625 Z m 0,0" fill-opacity="1" fill-rule="nonzero" id="SvgjsPath1196" style="fill:#ffffff;fill-opacity:1"></path>
    </g>
  </g>
  <g clip-path="url(#ddf0e8bb4c)" id="SvgjsG1195" style="fill:#ffffff;fill-opacity:1" transform="translate(-42.015628,-76.981093)">
    <g clip-path="url(#72391e9204)" id="SvgjsG1194" style="fill:#ffffff;fill-opacity:1">
      <path fill="#000000" d="m 42.015625,260.87109 h 92.406245 v 37.3711 H 42.015625 Z m 0,0" fill-opacity="1" fill-rule="nonzero" id="SvgjsPath1193" style="fill:#ffffff;fill-opacity:1"></path>
    </g>
  </g>
  <g clip-path="url(#9906df0c6c)" id="SvgjsG1192" style="fill:#ffffff;fill-opacity:1" transform="translate(-42.015628,-76.981093)">
    <g clip-path="url(#6bd4fa3d6d)" id="SvgjsG1191" style="fill:#ffffff;fill-opacity:1">
      <path fill="#000000" d="m 88.203125,216.58984 h 92.406245 v 37.36719 H 88.203125 Z m 0,0" fill-opacity="1" fill-rule="nonzero" id="SvgjsPath1190" style="fill:#ffffff;fill-opacity:1"></path>
    </g>
  </g>
  <g clip-path="url(#d0a3f13f4c)" id="SvgjsG1189" style="fill:#ffffff;fill-opacity:1" transform="translate(-42.015628,-76.981093)">
    <g clip-path="url(#56fd770ca0)" id="SvgjsG1188" style="fill:#ffffff;fill-opacity:1">
      <path fill="#000000" d="m 42.015625,173.35156 h 92.406245 v 37.3711 H 42.015625 Z m 0,0" fill-opacity="1" fill-rule="nonzero" id="SvgjsPath1187" style="fill:#ffffff;fill-opacity:1"></path>
    </g>
  </g>
  <g clip-path="url(#c08eaee716)" id="SvgjsG1186" style="fill:#ffffff;fill-opacity:1" transform="translate(-42.015628,-76.981093)">
    <g clip-path="url(#832d02519b)" id="SvgjsG1185" style="fill:#ffffff;fill-opacity:1">
      <path fill="#000000" d="m 88.203125,129.96484 h 92.406245 v 37.3711 H 88.203125 Z m 0,0" fill-opacity="1" fill-rule="nonzero" id="SvgjsPath1184" style="fill:#ffffff;fill-opacity:1"></path>
    </g>
  </g>
</svg><style>@media (prefers-color-scheme: light) { :root { filter: contrast(1) brightness(0.1); } }
@media (prefers-color-scheme: dark) { :root { filter: none; } }
</style></svg>